<?xml version="1.0" encoding="UTF-8" standalone="no"?><!DOCTYPE svg PUBLIC "-//W3C//DTD SVG 1.1//EN" "http://www.w3.org/Graphics/SVG/1.1/DTD/svg11.dtd"><svg width="100%" height="100%" viewBox="0 0 258 329" version="1.1" xmlns="http://www.w3.org/2000/svg" xmlns:xlink="http://www.w3.org/1999/xlink" xml:space="preserve" xmlns:serif="http://www.serif.com/" style="fill-rule:evenodd;clip-rule:evenodd;stroke-linejoin:round;stroke-miterlimit:2;"><path d="M207.992,285.064l-0,13.39c-0,16.337 -13.263,29.599 -29.599,29.599l-148.794,0c-16.336,0 -29.599,-13.262 -29.599,-29.599l0,-222.73c0,-16.336 13.263,-29.599 29.599,-29.599l21.53,0l0,-25.727c0,-11.258 9.235,-20.398 20.611,-20.398l164.884,0c11.375,0 20.61,9.14 20.61,20.398l0,244.268c0,11.258 -9.235,20.398 -20.61,20.398l-28.632,-0Zm-156.863,-216.939l-21.53,0c-4.194,0 -7.599,3.405 -7.599,7.599l-0,222.73c-0,4.194 3.405,7.599 7.599,7.599l148.794,0c4.194,0 7.599,-3.405 7.599,-7.599l-0,-13.39l-114.252,-0c-11.376,-0 -20.611,-9.14 -20.611,-20.398l0,-196.541Zm22,-46.125l0,241.064l162.105,-0l0,-241.064l-162.105,-0Z" style="fill:#212225;"/></svg>