<?xml version="1.0" encoding="UTF-8" standalone="no"?><!DOCTYPE svg PUBLIC "-//W3C//DTD SVG 1.1//EN" "http://www.w3.org/Graphics/SVG/1.1/DTD/svg11.dtd"><svg width="100%" height="100%" viewBox="0 0 260 260" version="1.1" xmlns="http://www.w3.org/2000/svg" xmlns:xlink="http://www.w3.org/1999/xlink" xml:space="preserve" xmlns:serif="http://www.serif.com/" style="fill-rule:evenodd;clip-rule:evenodd;stroke-linejoin:round;stroke-miterlimit:2;"><path d="M259.494,12.975l0,233.544c0,7.161 -5.814,12.975 -12.975,12.975l-233.544,0c-7.161,0 -12.975,-5.814 -12.975,-12.975l-0,-233.544c-0,-7.161 5.814,-12.975 12.975,-12.975l233.544,-0c7.161,-0 12.975,5.814 12.975,12.975Zm-239.494,7.025l-0,219.494l219.494,0l0.001,-219.494l-219.495,-0Zm95.444,95.444l0,-52.597c0,-0.79 0.641,-1.431 1.431,-1.431l25.745,0c0.789,0 1.43,0.641 1.43,1.431l-0,52.597l52.598,0c0.789,0 1.43,0.641 1.43,1.431l-0,25.745c-0,0.789 -0.641,1.43 -1.43,1.43l-52.598,-0l-0,52.598c-0,0.789 -0.641,1.43 -1.43,1.43l-25.745,-0c-0.79,-0 -1.431,-0.641 -1.431,-1.43l0,-52.598l-52.597,-0c-0.79,-0 -1.431,-0.641 -1.431,-1.43l0,-25.745c0,-0.79 0.641,-1.431 1.431,-1.431l52.597,0Z" style="fill:#212225;"/></svg>