<?xml version="1.0" encoding="UTF-8" standalone="no"?>
<!DOCTYPE svg PUBLIC "-//W3C//DTD SVG 1.1//EN" "http://www.w3.org/Graphics/SVG/1.1/DTD/svg11.dtd">
<svg width="100%" height="100%" viewBox="0 0 226 241" version="1.1" xmlns="http://www.w3.org/2000/svg" xmlns:xlink="http://www.w3.org/1999/xlink" xml:space="preserve" xmlns:serif="http://www.serif.com/" style="fill-rule:evenodd;clip-rule:evenodd;stroke-linejoin:round;stroke-miterlimit:2;">
    <g transform="matrix(1,0,0,1,-5840.82,-2158.54)">
        <g transform="matrix(3.36311,0,0,1,-10264.4,-268.79)">
            <g transform="matrix(0.297343,0,0,1,3052.06,268.79)">
                <path d="M5934.74,2160.1L5879.65,2227.94L5854.09,2213.42L5934.74,2160.1ZM5846.82,2226.31L5872.1,2241.01L5840.82,2324.36L5846.82,2226.31ZM5947.14,2369.87L5947.14,2399.41L5849.14,2352.21L5947.14,2369.87ZM5973.55,2160.76L6054.2,2213.42L6028.64,2227.94L5973.55,2160.76ZM6061.47,2226.31L6066.8,2326.36L6036.19,2241.01L6061.47,2226.31ZM5961.15,2369.87L6060.48,2351.54L5961.15,2399.41L5961.15,2369.87ZM5896.49,2229.97L5953.96,2158.55L6011.48,2229.97L5896.49,2229.97ZM5847.86,2340.22L5881.69,2254.09L5941.14,2355.85L5847.86,2340.22ZM6060.05,2340.22L5966.78,2355.85L6026.22,2254.09L6060.05,2340.22ZM6017.23,2243.26L5954.02,2349.83L5890.74,2243.26L6017.23,2243.26Z" style="fill:rgb(33,34,37);"/>
            </g>
        </g>
    </g>
</svg>
