<?xml version="1.0" encoding="UTF-8" standalone="no"?>
<!DOCTYPE svg PUBLIC "-//W3C//DTD SVG 1.1//EN" "http://www.w3.org/Graphics/SVG/1.1/DTD/svg11.dtd">
<svg width="100%" height="100%" viewBox="0 0 116 116" version="1.1" xmlns="http://www.w3.org/2000/svg" xmlns:xlink="http://www.w3.org/1999/xlink" xml:space="preserve" xmlns:serif="http://www.serif.com/" style="fill-rule:evenodd;clip-rule:evenodd;stroke-linejoin:round;stroke-miterlimit:2;">
    <g transform="matrix(1,0,0,1,-4892.47,-1919.28)">
        <g transform="matrix(2.02857,0,0,1,-4561.99,-268.79)">
            <g transform="matrix(0.348574,-0.707107,0.348574,0.707107,2298.28,4264.24)">
                <path d="M4842.38,1988.04L4842.38,1935.44C4842.38,1934.65 4843.02,1934.01 4843.81,1934.01L4869.56,1934.01C4870.35,1934.01 4870.99,1934.65 4870.99,1935.44L4870.99,1988.04L4923.59,1988.04C4924.38,1988.04 4925.02,1988.68 4925.02,1989.47L4925.02,2015.22C4925.02,2016 4924.38,2016.64 4923.59,2016.64L4870.99,2016.64L4870.99,2069.24C4870.99,2070.03 4870.35,2070.67 4869.56,2070.67L4843.81,2070.67C4843.02,2070.67 4842.38,2070.03 4842.38,2069.24L4842.38,2016.64L4789.78,2016.64C4789,2016.64 4788.36,2016 4788.36,2015.22L4788.36,1989.47C4788.36,1988.68 4789,1988.04 4789.78,1988.04L4842.38,1988.04Z" style="fill:rgb(33,34,37);"/>
            </g>
        </g>
    </g>
</svg>
