<?xml version="1.0" encoding="UTF-8" standalone="no"?>
<!DOCTYPE svg PUBLIC "-//W3C//DTD SVG 1.1//EN" "http://www.w3.org/Graphics/SVG/1.1/DTD/svg11.dtd">
<svg width="100%" height="100%" viewBox="0 0 302 302" version="1.1" xmlns="http://www.w3.org/2000/svg" xmlns:xlink="http://www.w3.org/1999/xlink" xml:space="preserve" xmlns:serif="http://www.serif.com/" style="fill-rule:evenodd;clip-rule:evenodd;stroke-linejoin:round;stroke-miterlimit:2;">
    <g transform="matrix(1,0,0,1,-4264.96,-1680.79)">
        <g transform="matrix(2.02857,0,0,1,-4561.99,-268.79)">
            <g transform="matrix(0.392091,-0.795385,0.227537,0.461574,2227.27,4846.5)">
                <path d="M4668.75,1919.28L4433.17,1919.28L4347.85,1866.91C4344.36,1864.76 4342.18,1860.64 4342.18,1856.15C4342.18,1851.67 4344.36,1847.55 4347.85,1845.4L4433.17,1793.03L4668.75,1793.03C4682.94,1793.03 4694.46,1805.99 4694.46,1821.95L4694.46,1890.36C4694.46,1906.33 4682.94,1919.28 4668.75,1919.28ZM4635.86,1897.28L4668.75,1897.28C4672.15,1897.28 4674.9,1894.18 4674.9,1890.36L4674.9,1821.95C4674.9,1818.13 4672.15,1815.03 4668.75,1815.03L4635.86,1815.03L4635.86,1897.28ZM4371.16,1856.15L4413.61,1882.21L4413.61,1830.1L4371.16,1856.15Z" style="fill:rgb(33,34,37);"/>
            </g>
        </g>
    </g>
</svg>
