<?xml version="1.0" encoding="UTF-8" standalone="no"?><!DOCTYPE svg PUBLIC "-//W3C//DTD SVG 1.1//EN" "http://www.w3.org/Graphics/SVG/1.1/DTD/svg11.dtd"><svg width="100%" height="100%" viewBox="0 0 250 250" version="1.1" xmlns="http://www.w3.org/2000/svg" xmlns:xlink="http://www.w3.org/1999/xlink" xml:space="preserve" xmlns:serif="http://www.serif.com/" style="fill-rule:evenodd;clip-rule:evenodd;stroke-linejoin:round;stroke-miterlimit:2;"><path d="M182.757,40.076c-16.532,-11.399 -36.566,-18.076 -58.147,-18.076c-56.632,0 -102.61,45.978 -102.61,102.61l-22,-0c-0,-68.774 55.836,-124.61 124.61,-124.61c28.705,0 55.157,9.727 76.235,26.062l23.897,-18.515l15.825,85.389l-78.73,-36.651l20.92,-16.209Zm-126.17,188.931l-20.213,20.213l-26.448,-82.717l82.717,26.448l-20.086,20.086c15.264,9.011 33.059,14.183 52.053,14.183c56.632,-0 102.61,-45.978 102.61,-102.61l22,-0c-0,68.774 -55.836,124.61 -124.61,124.61c-25.091,-0 -48.46,-7.432 -68.023,-20.213Z" style="fill:#212225;"/></svg>