<?xml version="1.0" encoding="UTF-8" standalone="no"?><!DOCTYPE svg PUBLIC "-//W3C//DTD SVG 1.1//EN" "http://www.w3.org/Graphics/SVG/1.1/DTD/svg11.dtd"><svg width="100%" height="100%" viewBox="0 0 173 243" version="1.1" xmlns="http://www.w3.org/2000/svg" xmlns:xlink="http://www.w3.org/1999/xlink" xml:space="preserve" xmlns:serif="http://www.serif.com/" style="fill-rule:evenodd;clip-rule:evenodd;stroke-linejoin:round;stroke-miterlimit:2;"><path d="M15.122,92.076l-0.196,-25.69c-0,-36.639 31.919,-66.386 71.235,-66.386c39.315,-0 71.235,29.747 71.235,66.386l-0.24,25.69l0.086,0c8.323,0 15.079,6.757 15.079,15.079l0,120.633c0,8.322 -6.756,15.079 -15.079,15.079l-142.163,-0c-8.322,-0 -15.079,-6.757 -15.079,-15.079l-0,-120.633c-0,-8.322 6.757,-15.079 15.079,-15.079l0.043,0Zm122.033,0c0.128,-13.718 0.241,-25.801 0.241,-25.826c-0.082,-25.941 -23.379,-46.25 -51.235,-46.25c-27.884,-0 -51.198,20.348 -51.235,46.324l0.196,25.752l102.033,0Z" style="fill:#212225;"/></svg>