<?xml version="1.0" encoding="UTF-8" standalone="no"?><!DOCTYPE svg PUBLIC "-//W3C//DTD SVG 1.1//EN" "http://www.w3.org/Graphics/SVG/1.1/DTD/svg11.dtd"><svg width="100%" height="100%" viewBox="0 0 219 260" version="1.1" xmlns="http://www.w3.org/2000/svg" xmlns:xlink="http://www.w3.org/1999/xlink" xml:space="preserve" xmlns:serif="http://www.serif.com/" style="fill-rule:evenodd;clip-rule:evenodd;stroke-linejoin:round;stroke-miterlimit:2;"><path d="M176.703,161.714l0,53.604c0,24.382 -19.794,44.176 -44.176,44.176l-88.351,0c-24.381,0 -44.176,-19.794 -44.176,-44.176l0,-171.142c0,-24.382 19.795,-44.176 44.176,-44.176l88.351,0c24.382,0 44.176,19.794 44.176,44.176l0,53.604l41.642,0l0,63.934l-41.642,-0Zm-20,-63.934l0,-53.604c0,-13.343 -10.833,-24.176 -24.176,-24.176l-88.351,0c-13.343,0 -24.176,10.833 -24.176,24.176l0,171.142c0,13.343 10.833,24.176 24.176,24.176l88.351,0c13.343,0 24.176,-10.833 24.176,-24.176l0,-53.604l-23.728,-0l0,59.366l-91.333,-91.333l91.333,-91.333l0,59.366l23.728,0Z" style="fill:#212225;"/></svg>