<?xml version="1.0" encoding="UTF-8" standalone="no"?><!DOCTYPE svg PUBLIC "-//W3C//DTD SVG 1.1//EN" "http://www.w3.org/Graphics/SVG/1.1/DTD/svg11.dtd"><svg width="100%" height="100%" viewBox="0 0 188 159" version="1.1" xmlns="http://www.w3.org/2000/svg" xmlns:xlink="http://www.w3.org/1999/xlink" xml:space="preserve" xmlns:serif="http://www.serif.com/" style="fill-rule:evenodd;clip-rule:evenodd;stroke-linejoin:round;stroke-miterlimit:2;"><path d="M187.625,134.08l0,20.221c0,2.391 -1.941,4.333 -4.333,4.333l-178.959,-0c-2.391,-0 -4.333,-1.942 -4.333,-4.333l0,-20.221c0,-2.391 1.942,-4.333 4.333,-4.333l178.959,0c2.392,0 4.333,1.942 4.333,4.333Zm0,-64.873l0,20.22c0,2.392 -1.941,4.333 -4.333,4.333l-178.959,0c-2.391,0 -4.333,-1.941 -4.333,-4.333l0,-20.22c0,-2.392 1.942,-4.333 4.333,-4.333l178.959,-0c2.392,-0 4.333,1.941 4.333,4.333Zm0,-64.874l0,20.221c0,2.391 -1.941,4.333 -4.333,4.333l-178.959,-0c-2.391,-0 -4.333,-1.942 -4.333,-4.333l0,-20.221c0,-2.391 1.942,-4.333 4.333,-4.333l178.959,-0c2.392,-0 4.333,1.942 4.333,4.333Z" style="fill:#212225;"/></svg>