<?xml version="1.0" encoding="UTF-8" standalone="no"?>
<!DOCTYPE svg PUBLIC "-//W3C//DTD SVG 1.1//EN" "http://www.w3.org/Graphics/SVG/1.1/DTD/svg11.dtd">
<svg width="100%" height="100%" viewBox="0 0 260 260" version="1.1" xmlns="http://www.w3.org/2000/svg" xmlns:xlink="http://www.w3.org/1999/xlink" xml:space="preserve" xmlns:serif="http://www.serif.com/" style="fill-rule:evenodd;clip-rule:evenodd;stroke-linejoin:round;stroke-miterlimit:2;">
    <g transform="matrix(1,0,0,1,-4382.16,-2103.37)">
        <g transform="matrix(3.36311,0,0,1,-10264.4,-268.79)">
            <g transform="matrix(0.297343,0,0,1,3000.99,-110.487)">
                <path d="M4813.42,2495.63L4813.42,2729.17C4813.42,2736.33 4807.61,2742.15 4800.45,2742.15L4566.9,2742.15C4559.74,2742.15 4553.93,2736.33 4553.93,2729.17L4553.93,2495.63C4553.93,2488.47 4559.74,2482.65 4566.9,2482.65L4800.45,2482.65C4807.61,2482.65 4813.42,2488.47 4813.42,2495.63ZM4573.93,2502.65L4573.93,2722.15L4793.42,2722.15L4793.42,2502.65L4573.93,2502.65ZM4751.63,2598.56C4751.86,2598.81 4752.01,2599.15 4752.01,2599.53L4752.01,2625.27C4752.01,2625.66 4751.85,2626.02 4751.59,2626.28L4615.76,2626.28C4615.51,2626.02 4615.35,2625.66 4615.35,2625.27L4615.35,2599.53C4615.35,2599.15 4615.49,2598.81 4615.72,2598.56L4751.63,2598.56Z" style="fill:rgb(33,34,37);"/>
            </g>
        </g>
    </g>
</svg>
