<?xml version="1.0" encoding="UTF-8" standalone="no"?><!DOCTYPE svg PUBLIC "-//W3C//DTD SVG 1.1//EN" "http://www.w3.org/Graphics/SVG/1.1/DTD/svg11.dtd"><svg width="100%" height="100%" viewBox="0 0 188 260" version="1.1" xmlns="http://www.w3.org/2000/svg" xmlns:xlink="http://www.w3.org/1999/xlink" xml:space="preserve" xmlns:serif="http://www.serif.com/" style="fill-rule:evenodd;clip-rule:evenodd;stroke-linejoin:round;stroke-miterlimit:2;"><path d="M187.625,9.381l0,240.732c0,5.178 -4.203,9.381 -9.381,9.381l-168.863,0c-5.177,0 -9.381,-4.203 -9.381,-9.381l-0,-240.732c-0,-5.177 4.204,-9.381 9.381,-9.381l168.863,-0c5.178,-0 9.381,4.204 9.381,9.381Zm-19.759,126.492c0,-0.396 -0.321,-0.717 -0.718,-0.717l-146.671,-0c-0.396,-0 -0.718,0.321 -0.718,0.717l0,12.92c0,0.397 0.322,0.718 0.718,0.718l146.671,0c0.397,0 0.718,-0.321 0.718,-0.718l0,-12.92Zm-42.77,81.078c0,-0.396 -0.321,-0.718 -0.718,-0.718l-103.901,-0c-0.396,-0 -0.718,0.322 -0.718,0.718l0,12.92c0,0.396 0.322,0.717 0.718,0.717l103.901,0c0.397,0 0.718,-0.321 0.718,-0.717l0,-12.92Zm42.77,-108.103c0,-0.397 -0.321,-0.718 -0.718,-0.718l-146.671,-0c-0.396,-0 -0.718,0.321 -0.718,0.718l0,12.92c0,0.396 0.322,0.717 0.718,0.717l146.671,0c0.397,0 0.718,-0.321 0.718,-0.717l0,-12.92Zm0,54.051c0,-0.396 -0.321,-0.718 -0.718,-0.718l-146.671,0c-0.396,0 -0.718,0.322 -0.718,0.718l0,12.92c0,0.396 0.322,0.718 0.718,0.718l146.671,-0c0.397,-0 0.718,-0.322 0.718,-0.718l0,-12.92Zm0,-135.358c0,-0.926 -0.752,-1.678 -1.678,-1.678l-144.75,-0c-0.927,-0 -1.679,0.752 -1.679,1.678l0,30.214c0,0.927 0.752,1.679 1.679,1.679l144.75,-0c0.926,-0 1.678,-0.752 1.678,-1.679l0,-30.214Zm0,54.281c0,-0.396 -0.321,-0.718 -0.718,-0.718l-146.671,-0c-0.396,-0 -0.718,0.322 -0.718,0.718l0,12.92c0,0.396 0.322,0.718 0.718,0.718l146.671,-0c0.397,-0 0.718,-0.322 0.718,-0.718l0,-12.92Zm0,108.103c0,-0.396 -0.321,-0.718 -0.718,-0.718l-146.671,0c-0.396,0 -0.718,0.322 -0.718,0.718l0,12.92c0,0.396 0.322,0.718 0.718,0.718l146.671,-0c0.397,-0 0.718,-0.322 0.718,-0.718l0,-12.92Z" style="fill:#212225;"/></svg>