<?xml version="1.0" encoding="UTF-8" standalone="no"?><!DOCTYPE svg PUBLIC "-//W3C//DTD SVG 1.1//EN" "http://www.w3.org/Graphics/SVG/1.1/DTD/svg11.dtd"><svg width="100%" height="100%" viewBox="0 0 260 260" version="1.1" xmlns="http://www.w3.org/2000/svg" xmlns:xlink="http://www.w3.org/1999/xlink" xml:space="preserve" xmlns:serif="http://www.serif.com/" style="fill-rule:evenodd;clip-rule:evenodd;stroke-linejoin:round;stroke-miterlimit:2;"><path d="M182.311,0l11.811,0l65.372,65.373l0,168.172c0,14.322 -11.627,25.949 -25.949,25.949l-207.596,0c-14.321,0 -25.949,-11.627 -25.949,-25.949l-0,-207.596c-0,-14.321 11.628,-25.949 25.949,-25.949l24.952,0l-0,50.812c-0,11.77 9.555,21.325 21.324,21.325l88.762,0c11.769,0 21.324,-9.555 21.324,-21.325l0,-50.812Zm-21.709,8.163c3.113,0.515 5.491,3.223 5.491,6.482l-0,34.495c-0,3.627 -2.944,6.571 -6.571,6.571l-13.141,-0c-3.626,-0 -6.57,-2.944 -6.57,-6.571l-0,-34.495c-0,-3.259 2.377,-5.967 5.491,-6.482l15.3,-0Zm47.992,142.909c-0,-11.77 -9.556,-21.325 -21.325,-21.325l-115.044,0c-11.769,0 -21.324,9.555 -21.324,21.325l-0,42.649c-0,11.77 9.555,21.325 21.324,21.325l115.044,0c11.769,0 21.325,-9.555 21.325,-21.325l-0,-42.649Z" style="fill:#212225;"/></svg>