<?xml version="1.0" encoding="UTF-8" standalone="no"?><!DOCTYPE svg PUBLIC "-//W3C//DTD SVG 1.1//EN" "http://www.w3.org/Graphics/SVG/1.1/DTD/svg11.dtd"><svg width="100%" height="100%" viewBox="0 0 260 260" version="1.1" xmlns="http://www.w3.org/2000/svg" xmlns:xlink="http://www.w3.org/1999/xlink" xml:space="preserve" xmlns:serif="http://www.serif.com/" style="fill-rule:evenodd;clip-rule:evenodd;stroke-linejoin:round;stroke-miterlimit:2;"><path d="M150.044,1.597c-13.447,-2.129 -27.146,-2.129 -40.594,0l-2.262,30.825c-10.725,2.486 -20.966,6.728 -30.309,12.554l-23.395,-20.197c-11.015,8.003 -20.702,17.69 -28.705,28.705l20.197,23.395c-5.826,9.343 -10.068,19.584 -12.554,30.309l-30.825,2.262c-2.129,13.448 -2.129,27.147 0,40.594l30.825,2.262c2.486,10.726 6.728,20.967 12.554,30.309l-20.197,23.396c8.003,11.014 17.69,20.701 28.705,28.704l23.395,-20.197c9.343,5.826 19.584,10.068 30.309,12.554l2.262,30.825c13.448,2.13 27.147,2.13 40.594,-0l2.262,-30.825c10.726,-2.486 20.967,-6.728 30.309,-12.554l23.396,20.197c11.014,-8.003 20.701,-17.69 28.704,-28.704l-20.197,-23.396c5.826,-9.342 10.068,-19.583 12.554,-30.309l30.825,-2.262c2.13,-13.447 2.13,-27.146 -0,-40.594l-30.825,-2.262c-2.486,-10.725 -6.728,-20.966 -12.554,-30.309l20.197,-23.395c-8.003,-11.015 -17.69,-20.702 -28.704,-28.705l-23.396,20.197c-9.342,-5.826 -19.583,-10.068 -30.309,-12.554l-2.262,-30.825Zm-20.297,76.251c28.644,0 51.899,23.255 51.899,51.899c-0,28.644 -23.255,51.899 -51.899,51.899c-28.644,-0 -51.899,-23.255 -51.899,-51.899c0,-28.644 23.255,-51.899 51.899,-51.899Z" style="fill:#212225;"/></svg>