<?xml version="1.0" encoding="UTF-8" standalone="no"?><!DOCTYPE svg PUBLIC "-//W3C//DTD SVG 1.1//EN" "http://www.w3.org/Graphics/SVG/1.1/DTD/svg11.dtd"><svg width="100%" height="100%" viewBox="0 0 173 274" version="1.1" xmlns="http://www.w3.org/2000/svg" xmlns:xlink="http://www.w3.org/1999/xlink" xml:space="preserve" xmlns:serif="http://www.serif.com/" style="fill-rule:evenodd;clip-rule:evenodd;stroke-linejoin:round;stroke-miterlimit:2;"><path d="M136.869,122.826c0.162,-17.382 0.527,-56.531 0.527,-56.576c-0.082,-25.941 -23.379,-46.25 -51.235,-46.25c-27.884,0 -51.198,20.348 -51.235,46.324l0.071,9.279l-20.001,0l-0.07,-9.217c-0,-36.639 31.919,-66.386 71.235,-66.386c39.315,0 71.235,29.747 71.235,66.386l-0.526,56.44l0.372,0c8.323,0 15.079,6.757 15.079,15.08l0,120.632c0,8.322 -6.756,15.079 -15.079,15.079l-142.163,-0c-8.322,-0 -15.079,-6.757 -15.079,-15.079l0,-120.632c0,-8.323 6.757,-15.08 15.079,-15.08l121.79,0Z" style="fill:#212225;"/></svg>