<?xml version="1.0" encoding="UTF-8" standalone="no"?><!DOCTYPE svg PUBLIC "-//W3C//DTD SVG 1.1//EN" "http://www.w3.org/Graphics/SVG/1.1/DTD/svg11.dtd"><svg width="100%" height="100%" viewBox="0 0 752 142" version="1.1" xmlns="http://www.w3.org/2000/svg" xmlns:xlink="http://www.w3.org/1999/xlink" xml:space="preserve" xmlns:serif="http://www.serif.com/" style="fill-rule:evenodd;clip-rule:evenodd;stroke-linejoin:round;stroke-miterlimit:2;"><path d="M748.959,121.625c0.591,-0.782 1.03,-1.823 1.112,-3.22c0.015,-0.267 -0.408,-2.078 -0.634,-3.02c-0.064,-2.367 -0.493,-3.698 -0.493,-5.997c0,-6.401 -1.502,-12.65 -1.502,-18.754c-0,-8.444 -1.002,-17.014 -1.002,-25.85c-0,0.061 -0.007,0.255 -0.007,0.255c0,0 0.007,-2.585 -0.15,-3.194c-0.141,-0.542 -0.334,-1.007 -0.55,-1.404c-0.197,-1.496 -2.131,-16.281 -2.664,-22.373c-0.085,-2.22 -0.135,-4.461 -0.135,-6.738c-0,-2.269 0.763,-11.456 0.446,-15.682c-0.208,-2.762 -1.206,-4.597 -1.926,-5.461c-0.106,-0.27 -0.702,-1.786 -1.049,-2.551c-0.565,-1.245 -1.279,-2.359 -2.177,-3.268c-0.548,-0.555 -2.356,-1.774 -5.348,-2.213c-4.668,-0.686 -15.225,-1.028 -17.789,-1.028c-6.828,0 -11.941,1.521 -18.533,1.521c-10.969,-0 -22.406,-1.521 -33.059,-1.521c-2.805,0 -13.24,-0.846 -18.281,-0.215c-1.503,0.187 -2.751,0.575 -3.736,1.031c-2.1,-0.107 -14.139,-0.71 -20.508,-0.827c-3.718,-0.068 -6.741,0.317 -8.384,0.835c-0.595,-0.011 -9.117,-0.17 -15.583,-0.57c-5.977,-0.371 -12.044,-0.674 -15.988,-0.409c-2.317,0.155 -4.135,0.581 -5.32,1.077c-0.546,0.072 -4.588,0.596 -8.357,0.813c-11.907,0.687 -30.734,0.829 -36.314,0.192c-0.099,-0.011 -0.225,-0.028 -0.324,-0.043c-0.97,-0.394 -2.212,-0.695 -3.719,-0.716c-2.909,-0.04 -10.657,0.538 -11.9,0.632c-1.644,-0.684 -3.897,-1.215 -6.621,-1.5c-5.569,-0.583 -13.637,-0.311 -21.641,0.022c-6.428,0.266 -12.811,0.565 -17.638,0.375c-2.219,-0.088 -3.992,-0.1 -4.948,-0.584c-2.252,-1.139 -5.153,-1.279 -8.216,-0.778c-1.329,0.218 -3.73,0.55 -4.173,0.611c-1.795,-0.739 -5.556,-1.347 -10.254,-1.478c-9.093,-0.252 -22.556,0.518 -27.036,0.518c-8.431,0 -30.526,-2.646 -46.344,-2.555c-7.417,0.043 -13.622,0.838 -17.17,2.348c-0.617,-0.047 -2.194,-0.157 -3.043,-0.111c-1.314,0.071 -2.545,0.375 -3.658,0.939c-0.685,0.346 -1.789,0.269 -3.069,0.292c-2.217,0.041 -4.783,-0.108 -7.364,-0.243c-6.17,-0.323 -12.38,-0.238 -15.904,1.153c-0.064,0.008 -0.132,0.015 -0.189,0.02c-5.898,0.514 -25.575,-0.989 -30.743,-1.944c-0.066,-0.012 -0.147,-0.029 -0.217,-0.043c-0.959,-0.39 -2.02,-0.594 -3.165,-0.596c-0.899,-0.002 -2.656,0.28 -3.399,0.406c-2.933,-0.957 -8.724,-1.633 -15.901,-1.771c-16.437,-0.315 -41.205,1.092 -49.187,1.092c-2.969,-0 -14.381,-1.049 -19.406,-0.887c-1.617,0.052 -2.941,0.372 -3.959,0.763c-0.733,-0.035 -9.788,-0.463 -14.62,-0.472c-2.87,-0.005 -5.288,0.351 -6.819,0.862c-0.021,0.003 -0.041,0.006 -0.059,0.008c-4.711,0.575 -22.133,0.233 -25.262,0.233c-10.52,-0 -36.1,3.586 -54.094,3.923c-6.468,0.122 -11.799,0.058 -14.436,-1.276c-1.387,-0.702 -3.435,-1.246 -5.932,-1.502c-3.991,-0.41 -9.553,-0.202 -14.366,-0.219c-2.272,-0.008 -5.269,-0.324 -6.056,-0.412c-0.573,-0.417 -1.305,-0.818 -2.229,-1.12c-1.665,-0.543 -5.065,-0.862 -9.247,-0.784c-6.453,0.122 -15.114,0.953 -20.787,1.779c-0.319,-0.202 -0.663,-0.376 -1.029,-0.516c-2.33,-0.892 -4.876,-0.165 -6.426,1.628c-0.531,0.139 -1.174,0.321 -1.557,0.477c-1.025,0.416 -1.924,1.001 -2.683,1.769c-0.817,0.827 -1.76,2.941 -2.114,3.777c-0.543,0.779 -1.168,2.081 -1.182,4.013c-0.024,3.193 2.097,17.022 2.097,19.679c-0,18.15 -3.507,34.832 -3.507,53.222c0,3.271 -1.652,17.571 -1.503,23.984c0.038,1.644 0.307,3.027 0.662,4.133c0.03,1.271 0.129,3.253 0.452,3.908c0.76,1.537 1.075,3.086 1.23,4.618c-0.364,0.3 -0.697,0.643 -1.001,1.013c-0.575,0.7 -1.772,2.2 -1.238,5.013c0.292,1.544 1.158,2.83 2.332,3.676c0.289,0.353 0.604,0.727 0.766,0.892c0.401,0.406 0.842,0.784 1.315,1.138c0.755,1.529 1.783,3.01 3.193,4.437c0.899,0.91 2.094,1.651 3.545,2.159c1.039,0.363 2.424,0.438 3.474,0.969c3.252,1.646 7.259,3.661 11.11,3.661c1.596,0 3.042,-0.653 4.092,-1.709c4.345,0.492 8.753,0.642 12.268,0.292c2.791,-0.279 5.126,-0.904 6.772,-1.737c2.51,-1.27 6.241,-1.208 10.216,-0.98c7.807,0.448 16.417,2.107 21.75,2.107c5.634,-0 30.854,1.781 42.511,1.587c4.213,-0.07 7.156,-0.681 8.17,-1.194c1.124,-0.569 3.659,-0.822 6.754,-1.157c9.176,-0.992 22.459,-1.264 27.215,-1.264l55.097,0c2.384,0 5.45,-0.364 8.479,-0.552c2.094,-0.13 4.17,-0.27 5.714,0.251c2.077,0.7 4.33,0.797 6.622,0.64c1.513,-0.103 3.056,-0.586 4.398,-0.133c9.111,3.073 34.526,1.822 45.413,1.822c5.649,-0 31.667,0.649 43.925,-0.139c4.011,-0.257 6.903,-0.88 8.111,-1.425c0.173,-0.023 2.236,-0.293 3.834,-0.299c4.135,-0.015 9.63,0.462 15.198,0.891c7.042,0.544 14.192,0.999 19.23,0.545c2.664,-0.241 4.873,-0.77 6.488,-1.488c0.461,0.055 1.917,0.23 2.745,0.356c2.349,0.356 4.628,0.364 6.489,-0.263c2.423,-0.818 6.505,0.092 10.096,0.354c3.906,0.285 7.443,0.014 9.751,-0.972c0.513,0.053 2.639,0.266 3.741,0.305c1.916,0.069 3.694,-0.247 5.222,-1.02c1.658,-0.839 5.038,-0.798 9.122,-0.758c12.359,0.12 29.904,2.392 36.868,2.392c4.774,0 12.857,-1.01 19.979,-1.102c3.634,-0.048 6.97,-0.029 8.981,0.989c2.786,1.409 6.383,1.496 10.171,0.876c1.446,-0.237 2.93,-0.553 4.361,-0.759c0.928,-0.134 1.808,-0.466 2.499,-0.117c0.318,0.161 1.504,0.641 3.52,0.754c2.865,0.16 10.136,0.196 18.442,0.146c13.921,-0.085 30.773,-0.406 34.477,-0.707c1.401,-0.114 2.291,-0.446 2.686,-0.623c0.175,-0.027 2.101,-0.322 3.326,-0.322c1.209,0 3.099,0.287 3.318,0.321c1.981,0.951 4.399,1.152 6.95,0.883c1.003,-0.106 2.825,-0.265 3.227,-0.3c2.714,1.271 5.859,1.445 9.131,1.125c1.313,-0.129 2.651,-0.326 3.958,-0.426c0.932,-0.071 1.85,-0.23 2.627,0.163c1.511,0.764 4.454,1.215 8.061,0.952c4.289,-0.313 12.256,-1.186 13.737,-1.35c1.135,0.572 2.698,1.1 4.659,1.347c6.357,0.801 19.987,0.178 23.723,0.178c4.298,-0 16.503,0.482 24.812,0.081c4.052,-0.195 7.358,-0.759 9.165,-1.426l8.166,0.303c0.71,0.353 1.594,0.645 2.659,0.759c1.774,0.189 5.37,-0.224 6.288,-0.224c6.75,-0 14.3,0.487 20.713,-0.55c5.388,-0.872 10.057,-2.811 13.445,-6.239c2.038,-2.062 3.434,-5.611 3.695,-10.01c0.06,-1.02 0.065,-2.092 0.023,-3.195Zm-0.976,-8.026c0.087,0.08 0.175,0.164 0.263,0.253c-0.085,-0.087 -0.173,-0.17 -0.262,-0.25c-0.001,-0.001 -0.001,-0.002 -0.001,-0.003Zm-732.801,-97.126c1.103,-0.985 1.833,-2.388 1.949,-3.962l0.209,-0.506c6.404,-0.97 24.322,-1.709 26.79,-1.807c0.573,0.37 1.242,0.706 2.015,0.981c1.568,0.556 3.914,0.912 6.69,1.031c4.17,0.179 9.596,-0.083 14.039,0.067c1.909,0.064 3.566,0.019 4.485,0.484c3.638,1.841 10.916,2.681 19.843,2.514c17.922,-0.336 43.399,-3.922 53.878,-3.922c2.895,0 17.546,0.246 24.21,-0.118c2.532,-0.138 4.355,-0.577 5.168,-0.893c-0.089,0.037 -0.164,0.067 -0.164,0.067c-0,-0 12.69,0.452 17.045,0.358c1.659,-0.036 3.025,-0.351 4.083,-0.754c1.293,0.064 16.75,0.833 19.783,0.833c7.946,0 32.603,-1.407 48.967,-1.093c3.957,0.075 7.398,0.248 9.924,0.587c0.953,0.128 1.7,0.178 2.126,0.393c1.101,0.557 2.356,0.852 3.731,0.854c0.93,0.002 2.776,-0.299 3.471,-0.419c0.724,0.214 1.716,0.444 2.943,0.625c5.111,0.754 16.805,1.705 24.995,1.942c3.306,0.096 6.081,0.066 7.754,-0.104c1.631,-0.165 2.764,-0.564 3.37,-0.87c0.754,-0.382 1.895,-0.384 3.194,-0.435c3.279,-0.128 7.253,0.191 10.915,0.352c5.016,0.221 9.566,-0.08 12.267,-1.139c0.574,0.045 2.18,0.159 3.017,0.119c1.328,-0.063 2.561,-0.366 3.665,-0.925c2.41,-1.219 7.111,-1.396 12.736,-1.429c15.796,-0.09 37.859,2.556 46.278,2.556c4.427,0 17.731,-0.772 26.718,-0.523c2.535,0.071 5.619,0.474 5.979,0.522c2.218,1.036 5.026,1.151 7.985,0.666c1.317,-0.215 3.683,-0.543 4.16,-0.609c1.536,0.693 3.838,1.241 6.735,1.488c5.29,0.451 13.195,0.112 21.164,-0.219c6.396,-0.265 12.835,-0.52 17.814,-0.242c2.411,0.134 4.381,0.253 5.524,0.831c1.098,0.556 3.442,1.028 6.382,0.917c2.956,-0.111 8.377,-0.518 9.748,-0.623c0.261,0.106 0.547,0.203 0.859,0.288c0.942,0.256 3.138,0.524 6.177,0.657c9.881,0.429 30.629,0.076 40.081,-0.864c3.037,-0.302 5.222,-0.832 6.258,-1.253c0.229,-0.025 2.679,-0.283 4.526,-0.282c4.697,0.002 10.93,0.455 16.451,0.793c4.654,0.284 8.84,0.479 11.413,0.339c1.749,-0.095 3.086,-0.418 3.961,-0.758c0.302,0.013 17.681,0.741 23.723,0.764c2.291,0.009 3.978,-0.247 4.797,-0.522c0.474,-0.158 0.886,-0.35 1.244,-0.557c1.841,0.026 14.672,0.201 17.242,0.201c10.653,-0 22.09,1.52 33.059,1.52c6.592,0 11.705,-1.52 18.533,-1.52c2.004,-0 11.419,0.653 15.256,0.925c0.175,0.429 0.359,0.869 0.501,1.183c0.265,0.582 0.562,1.136 0.895,1.654c-0.082,2.475 -0.417,12.688 -0.417,14.694c-0,1.286 0.016,2.56 0.045,3.825c-0.03,0.241 -0.045,0.487 -0.045,0.737c-0,0.802 0.082,2.324 0.225,4.267c0.523,11.012 1.778,21.629 1.778,33.748l0,26.864c0,2.272 0.162,8.844 0.538,11.751c0.314,2.426 1.273,3.897 1.687,4.377c0.472,0.548 0.966,0.966 1.472,1.278c0.171,1.249 0.289,2.504 0.336,3.71c0.046,1.183 0.021,2.314 -0.118,3.327c-0.069,0.498 -0.296,1.248 -0.362,1.458c-2.321,2.223 -5.842,2.803 -9.633,3.124c-5.211,0.441 -10.946,0.076 -16.166,0.076c-0.66,0 -4.164,0.229 -4.926,0.279c-0.988,-0.388 -2.221,-0.736 -3.651,-0.909c-2.661,-0.322 -6.388,-0.446 -8.876,-0.248c-1.767,0.14 -3.156,0.528 -3.972,0.894c-0.27,0.042 -3.112,0.475 -5.406,0.586c-8.123,0.391 -20.057,-0.095 -24.259,-0.095c-3.58,0 -20.987,-0.246 -23.174,-0.277c-0.662,-0.414 -1.472,-0.77 -2.452,-0.995c-1.302,-0.298 -3.339,-0.372 -5.762,-0.175c-4.297,0.35 -13.069,1.215 -14.11,1.318c-2.696,-1.204 -5.781,-1.367 -8.972,-1.059c-1.323,0.128 -2.666,0.327 -3.975,0.429c-0.917,0.072 -1.816,0.241 -2.572,-0.142c-2.037,-1.03 -4.525,-1.25 -7.133,-0.98c-1.005,0.104 -2.846,0.27 -3.244,0.306c-1.751,-0.757 -4.858,-1.317 -7.997,-1.317c-2.671,-0 -5.319,0.406 -7.128,0.993c-0.201,0.015 -0.454,0.032 -0.679,0.044c-8.146,0.441 -42.551,0.872 -50.249,0.498c-0.097,-0.004 -0.202,-0.011 -0.302,-0.017c-2.603,-0.946 -5.765,-0.944 -9.073,-0.402c-1.446,0.237 -2.93,0.553 -4.36,0.759c-0.929,0.133 -1.809,0.466 -2.499,0.116c-3.226,-1.632 -8.494,-2.304 -14.323,-2.228c-7.068,0.092 -15.091,1.102 -19.829,1.102c-6.943,-0 -24.434,-2.272 -36.756,-2.392c-6.119,-0.06 -11.169,0.581 -13.94,1.772c-0.547,-0.057 -2.654,-0.271 -3.767,-0.306c-1.857,-0.059 -3.595,0.24 -5.112,0.978c-0.154,0.021 -1.046,0.137 -1.619,0.141c-1.466,0.012 -3.128,-0.138 -4.818,-0.288c-4.515,-0.402 -9.16,-0.618 -12.21,0.316c-0.352,-0.046 -2.412,-0.317 -3.518,-0.463c-2.609,-0.343 -5.06,-0.124 -7.008,0.862c-1.305,0.66 -3.609,0.653 -6.371,0.666c-5.711,0.026 -12.935,-0.661 -19.432,-1.14c-5.546,-0.41 -10.611,-0.654 -14.035,-0.336c-2.035,0.189 -3.673,0.611 -4.853,1.133c-0.593,0.067 -5.072,0.56 -9.128,0.683c-13.099,0.396 -33.373,-0.106 -38.253,-0.106c-10.004,0 -33.371,1.605 -41.742,-1.219c-2.044,-0.689 -4.283,-0.783 -6.579,-0.623c-1.51,0.106 -3.068,0.579 -4.441,0.116c-4.769,-1.609 -12.773,-0.301 -17.864,-0.301l-55.097,-0c-4.971,-0 -18.857,0.293 -28.448,1.33c-4.472,0.484 -8.138,1.253 -10.131,2.068c-0.656,0.039 -4.72,0.268 -8.491,0.205c-12.718,-0.212 -32.649,-1.576 -37.58,-1.576c-5.173,0 -13.52,-1.654 -21.093,-2.088c-6.28,-0.36 -12.099,0.195 -16.064,2.201c-0.99,0.501 -2.579,0.596 -4.412,0.667c-3.876,0.149 -8.61,-0.308 -12.772,-1.07c-3.308,-0.605 -7.428,-2.095 -7.899,-2.267c-1.18,-1.122 -2.679,-2.028 -4.301,-2.808c-0.099,-0.048 -0.199,-0.094 -0.301,-0.138c-0.113,-1.055 -0.102,-2.141 -0.182,-3.226c-0.215,-2.935 -0.583,-5.928 -1.795,-8.937c0.046,-0.805 0.075,-1.79 -0.018,-2.248c-0.095,-0.467 -0.232,-0.897 -0.402,-1.293c0.169,-2.536 1.412,-21.332 1.412,-24.62c0,-18.39 3.507,-35.072 3.507,-53.222c-0,-1.681 -0.847,-9.138 -1.465,-14.35Zm719.915,93.547c-0.054,0.095 -0.105,0.191 -0.153,0.29c0.049,-0.101 0.1,-0.198 0.152,-0.292c0,0.001 0,0.001 0.001,0.002Z"/></svg>