<?xml version="1.0" encoding="UTF-8" standalone="no"?><!DOCTYPE svg PUBLIC "-//W3C//DTD SVG 1.1//EN" "http://www.w3.org/Graphics/SVG/1.1/DTD/svg11.dtd"><svg width="100%" height="100%" viewBox="0 0 749 749" version="1.1" xmlns="http://www.w3.org/2000/svg" xmlns:xlink="http://www.w3.org/1999/xlink" xml:space="preserve" xmlns:serif="http://www.serif.com/" style="fill-rule:evenodd;clip-rule:evenodd;stroke-linejoin:round;stroke-miterlimit:2;"><rect id="Artboard2" x="0" y="0" width="748.542" height="748.542" style="fill:none;"/><clipPath id="_clip1"><rect id="Artboard21" serif:id="Artboard2" x="0" y="0" width="748.542" height="748.542"/></clipPath><g clip-path="url(#_clip1)"><path d="M4.819,47.451l0,-12.483c-0.541,-5.698 -1.896,-16.377 -1.877,-19.289c0.014,-2.202 0.639,-3.685 1.182,-4.572c0.354,-0.953 1.297,-3.362 2.114,-4.304c0.759,-0.875 1.658,-1.542 2.683,-2.016c0.383,-0.178 1.026,-0.385 1.557,-0.543c1.55,-2.044 4.096,-2.872 6.426,-1.856c0.366,0.16 0.71,0.358 1.029,0.588c5.673,-0.94 14.334,-1.888 20.787,-2.026c4.182,-0.09 7.582,0.274 9.247,0.893c0.924,0.343 1.656,0.8 2.229,1.276c0.787,0.1 3.784,0.46 6.056,0.469c4.813,0.02 10.375,-0.218 14.366,0.249c2.497,0.292 4.545,0.913 5.932,1.712c2.637,1.521 7.968,1.593 14.436,1.455c17.994,-0.385 43.574,-4.471 54.094,-4.471c3.129,-0 20.551,0.39 25.262,-0.265c0.018,-0.003 0.038,-0.006 0.059,-0.009c1.531,-0.583 3.949,-0.989 6.819,-0.983c4.832,0.011 13.887,0.498 14.62,0.538c1.018,-0.446 2.342,-0.81 3.959,-0.869c5.025,-0.185 16.437,1.01 19.406,1.01c7.982,0 32.75,-1.603 49.187,-1.244c7.177,0.157 12.968,0.928 15.901,2.018c0.743,-0.144 2.5,-0.465 3.399,-0.463c1.145,0.002 2.206,0.235 3.165,0.679c0.07,0.017 0.151,0.036 0.217,0.05c5.168,1.087 24.845,2.8 30.743,2.215c0.057,-0.006 0.125,-0.014 0.189,-0.023c3.524,-1.585 9.734,-1.682 15.904,-1.314c2.581,0.154 5.147,0.324 7.364,0.277c1.28,-0.026 2.384,0.061 3.069,-0.333c1.113,-0.642 2.344,-0.989 3.658,-1.07c0.849,-0.052 2.426,0.073 3.043,0.127c3.548,-1.72 9.753,-2.627 17.17,-2.676c15.818,-0.103 37.913,2.912 46.344,2.912c4.48,0 17.943,-0.878 27.036,-0.59c4.698,0.148 8.459,0.841 10.254,1.684c0.443,-0.07 2.844,-0.448 4.173,-0.696c3.063,-0.572 5.964,-0.412 8.216,0.886c0.956,0.552 2.729,0.565 4.948,0.665c4.827,0.216 11.21,-0.123 17.638,-0.428c8.004,-0.378 16.072,-0.688 21.641,-0.024c2.724,0.324 4.977,0.929 6.621,1.709c1.243,-0.107 8.991,-0.766 11.9,-0.72c1.507,0.024 2.749,0.367 3.719,0.816c0.099,0.017 0.225,0.037 0.324,0.049c5.58,0.725 24.407,0.564 36.314,-0.218c3.769,-0.248 7.811,-0.846 8.357,-0.928c1.185,-0.564 3.003,-1.05 5.32,-1.227c3.944,-0.301 10.011,0.044 15.988,0.466c6.466,0.456 14.988,0.637 15.583,0.65c1.643,-0.591 4.666,-1.029 8.384,-0.952c6.369,0.134 18.408,0.821 20.508,0.943c0.985,-0.519 2.233,-0.961 3.736,-1.175c5.041,-0.719 15.476,0.245 18.281,0.245c10.653,0 22.09,1.733 33.059,1.733c6.592,-0 11.705,-1.733 18.533,-1.733c2.564,0 13.121,0.39 17.789,1.171c2.992,0.5 4.8,1.89 5.348,2.522c0.743,0.856 1.359,1.872 1.87,3l5.154,-0l-0,56.66c0.246,2.192 0.428,3.77 0.481,4.233c0.216,0.452 0.409,0.982 0.55,1.599c0.157,0.694 0.15,3.641 0.15,3.641c0,-0 0.007,-0.222 0.007,-0.292c-0,10.07 1.002,19.835 1.002,29.456c-0,6.955 1.502,14.076 1.502,21.37c0,2.619 0.429,4.136 0.493,6.833c0.226,1.073 0.649,3.137 0.634,3.441c-0.082,1.592 -0.521,2.777 -1.112,3.669c0.042,1.257 0.037,2.479 -0.023,3.64c-0.26,5.004 -1.652,9.042 -3.684,11.394l-0,156.12c0.246,7.457 0.428,12.823 0.481,14.396c0.216,1.54 0.409,3.34 0.55,5.441c0.157,2.36 0.15,12.379 0.15,12.379c0,0 0.007,-0.753 0.007,-0.99c-0,34.244 1.002,67.454 1.002,100.175c-0,23.652 1.502,47.87 1.502,72.675c0,8.91 0.429,14.067 0.493,23.241c0.226,3.65 0.649,10.668 0.634,11.701c-0.082,5.415 -0.521,9.446 -1.112,12.48c0.042,4.272 0.037,8.428 -0.023,12.378c-0.26,17.017 -1.652,30.75 -3.684,38.748l-0,34.154c0.246,2.192 0.428,3.77 0.481,4.233c0.216,0.452 0.409,0.982 0.55,1.599c0.157,0.694 0.15,3.641 0.15,3.641c0,-0 0.007,-0.222 0.007,-0.292c-0,10.07 1.002,19.835 1.002,29.456c-0,6.955 1.502,14.076 1.502,21.37c0,2.619 0.429,4.136 0.493,6.833c0.226,1.073 0.649,3.137 0.634,3.441c-0.082,1.592 -0.521,2.777 -1.112,3.669c0.042,1.257 0.037,2.479 -0.023,3.64c-0.261,5.013 -1.657,9.056 -3.695,11.406c-3.388,3.907 -8.057,6.116 -13.445,7.109c-6.413,1.183 -13.963,0.627 -20.713,0.627c-0.918,0 -4.514,0.471 -6.288,0.256c-1.065,-0.13 -1.949,-0.463 -2.659,-0.866l-8.166,-0.345c-1.807,0.76 -5.113,1.403 -9.165,1.625c-8.309,0.457 -20.514,-0.092 -24.812,-0.092c-3.736,-0 -17.366,0.71 -23.723,-0.202c-1.961,-0.282 -3.524,-0.884 -4.659,-1.536c-1.481,0.187 -9.448,1.182 -13.737,1.538c-3.607,0.3 -6.55,-0.213 -8.061,-1.084c-0.777,-0.449 -1.695,-0.267 -2.627,-0.186c-1.307,0.114 -2.645,0.339 -3.958,0.486c-3.272,0.365 -6.417,0.166 -9.131,-1.282c-0.402,0.039 -2.224,0.221 -3.227,0.341c-2.551,0.307 -4.969,0.078 -6.95,-1.006c-0.219,-0.038 -2.109,-0.365 -3.318,-0.365c-1.225,-0 -3.151,0.336 -3.326,0.367c-0.395,0.202 -1.285,0.579 -2.686,0.709c-3.704,0.343 -20.556,0.71 -34.477,0.806c-8.306,0.057 -15.577,0.016 -18.442,-0.167c-2.016,-0.128 -3.202,-0.675 -3.52,-0.859c-0.691,-0.397 -1.571,-0.018 -2.499,0.134c-1.431,0.234 -2.915,0.594 -4.361,0.864c-3.788,0.707 -7.385,0.608 -10.171,-0.998c-2.011,-1.159 -5.347,-1.181 -8.981,-1.127c-7.122,0.106 -15.205,1.256 -19.979,1.256c-6.964,0 -24.509,-2.588 -36.868,-2.726c-4.084,-0.045 -7.464,-0.091 -9.122,0.865c-1.528,0.881 -3.306,1.24 -5.222,1.162c-1.102,-0.045 -3.228,-0.288 -3.741,-0.348c-2.308,1.124 -5.845,1.432 -9.751,1.108c-3.591,-0.299 -7.673,-1.336 -10.096,-0.404c-1.861,0.715 -4.14,0.706 -6.489,0.299c-0.828,-0.143 -2.284,-0.342 -2.745,-0.404c-1.615,0.817 -3.824,1.42 -6.488,1.694c-5.038,0.518 -12.188,-0 -19.23,-0.62c-5.568,-0.49 -11.063,-1.032 -15.198,-1.015c-1.598,0.006 -3.661,0.314 -3.834,0.34c-1.208,0.621 -4.1,1.331 -8.111,1.624c-12.258,0.897 -38.276,0.158 -43.925,0.158c-10.887,0 -36.302,1.426 -45.413,-2.076c-1.342,-0.516 -2.885,0.034 -4.398,0.152c-2.292,0.179 -4.545,0.068 -6.622,-0.73c-1.544,-0.593 -3.62,-0.434 -5.714,-0.285c-3.029,0.214 -6.095,0.629 -8.479,0.629l-55.097,-0c-4.756,-0 -18.039,0.309 -27.215,1.44c-3.095,0.382 -5.63,0.67 -6.754,1.319c-1.014,0.584 -3.957,1.28 -8.17,1.36c-11.657,0.221 -36.877,-1.809 -42.511,-1.809c-5.333,0 -13.943,-1.891 -21.75,-2.401c-3.975,-0.259 -7.706,-0.33 -10.216,1.117c-1.646,0.949 -3.981,1.662 -6.772,1.979c-3.515,0.399 -7.923,0.229 -12.268,-0.332c-1.05,1.203 -2.496,1.947 -4.092,1.947c-3.851,0 -7.858,-2.296 -11.11,-4.172c-1.05,-0.604 -2.435,-0.69 -3.474,-1.104c-1.451,-0.579 -2.646,-1.423 -3.545,-2.459c-0.687,-0.794 -1.284,-1.601 -1.803,-2.422l-1.118,-0l0,-2.033c-0.094,-0.2 -0.185,-0.401 -0.272,-0.602c-0.473,-0.403 -0.914,-0.834 -1.315,-1.297c-0.162,-0.187 -0.477,-0.614 -0.766,-1.016c-1.174,-0.964 -2.04,-2.429 -2.332,-4.188c-0.534,-3.206 0.663,-4.915 1.238,-5.712c0.304,-0.422 0.637,-0.813 1.001,-1.155c-0.155,-1.745 -0.47,-3.51 -1.23,-5.262c-0.323,-0.747 -0.422,-3.005 -0.452,-4.453c-0.355,-1.26 -0.624,-2.836 -0.662,-4.709c-0.149,-7.308 1.503,-23.602 1.503,-27.329c0,-17.763 2.52,-34.127 3.287,-51.296l0,-12.483c-0.391,-4.122 -1.208,-10.848 -1.623,-15.358c-0.171,-0.695 -0.461,-2.038 -0.73,-3.308c-1.174,-3.278 -2.04,-8.262 -2.332,-14.244c-0.534,-10.904 0.663,-16.714 1.238,-19.426c0.304,-1.437 0.637,-2.766 1.001,-3.929c-0.155,-5.933 -0.47,-11.936 -1.23,-17.894c-0.323,-2.539 -0.422,-10.22 -0.452,-15.145c-0.355,-4.283 -0.624,-9.644 -0.662,-16.015c-0.149,-24.853 1.503,-80.268 1.503,-92.943c0,-60.409 2.52,-116.06 3.287,-174.452l0,-42.452c-0.365,-13.078 -1.101,-33.871 -1.535,-49.053c-0.017,-0.02 -0.034,-0.04 -0.052,-0.06c-0.162,-0.187 -0.477,-0.614 -0.766,-1.016c-1.174,-0.964 -2.04,-2.429 -2.332,-4.188c-0.534,-3.206 0.663,-4.915 1.238,-5.712c0.304,-0.422 0.637,-0.813 1.001,-1.155c-0.155,-1.745 -0.47,-3.51 -1.23,-5.262c-0.323,-0.747 -0.422,-3.005 -0.452,-4.453c-0.355,-1.26 -0.624,-2.836 -0.662,-4.709c-0.149,-7.308 1.503,-23.602 1.503,-27.329c0,-17.763 2.52,-34.127 3.287,-51.296Zm743.164,666.853l0.001,0.004c0.089,0.091 0.177,0.186 0.262,0.285c-0.088,-0.102 -0.176,-0.198 -0.263,-0.289Zm-0,-181.19l0.001,0.014c0.089,0.31 0.177,0.633 0.262,0.968c-0.088,-0.345 -0.176,-0.672 -0.263,-0.982Zm-0,-400.692l0.001,0.004c0.089,0.091 0.177,0.186 0.262,0.285c-0.088,-0.102 -0.176,-0.198 -0.263,-0.289Z"/></g></svg>