<?xml version="1.0" encoding="UTF-8" standalone="no"?><!DOCTYPE svg PUBLIC "-//W3C//DTD SVG 1.1//EN" "http://www.w3.org/Graphics/SVG/1.1/DTD/svg11.dtd"><svg width="100%" height="100%" viewBox="0 0 752 142" version="1.1" xmlns="http://www.w3.org/2000/svg" xmlns:xlink="http://www.w3.org/1999/xlink" xml:space="preserve" xmlns:serif="http://www.serif.com/" style="fill-rule:evenodd;clip-rule:evenodd;stroke-linejoin:round;stroke-miterlimit:2;"><path d="M-3.354,121.625c-0.598,-0.782 -1.042,-1.823 -1.125,-3.22c-0.016,-0.267 0.413,-2.078 0.641,-3.02c0.065,-2.367 0.499,-3.698 0.499,-5.997c0,-6.401 1.521,-12.65 1.521,-18.754c-0,-8.444 1.013,-17.014 1.013,-25.85c0,0.061 0.007,0.255 0.007,0.255c-0,0 -0.007,-2.585 0.152,-3.194c0.142,-0.542 0.338,-1.007 0.557,-1.404c0.198,-1.496 2.156,-16.281 2.695,-22.373c0.086,-2.22 0.137,-4.461 0.137,-6.738c0,-2.269 -0.772,-11.456 -0.451,-15.682c0.21,-2.762 1.22,-4.597 1.949,-5.461c0.107,-0.27 0.71,-1.786 1.061,-2.551c0.572,-1.245 1.294,-2.359 2.203,-3.268c0.555,-0.555 2.385,-1.774 5.412,-2.213c4.723,-0.686 15.406,-1.028 18.002,-1.028c6.909,0 12.083,1.521 18.754,1.521c11.1,-0 22.673,-1.521 33.454,-1.521c2.838,0 13.398,-0.846 18.499,-0.215c1.521,0.187 2.784,0.575 3.78,1.031c2.126,-0.107 14.309,-0.71 20.754,-0.827c3.762,-0.068 6.821,0.317 8.483,0.835c0.603,-0.011 9.227,-0.17 15.77,-0.57c6.048,-0.371 12.188,-0.674 16.179,-0.409c2.344,0.155 4.185,0.581 5.383,1.077c0.552,0.072 4.643,0.596 8.458,0.813c12.049,0.687 31.1,0.829 36.747,0.192c0.1,-0.011 0.227,-0.028 0.328,-0.043c0.981,-0.394 2.238,-0.695 3.763,-0.716c2.944,-0.04 10.784,0.538 12.042,0.632c1.664,-0.684 3.943,-1.215 6.7,-1.5c5.636,-0.583 13.8,-0.311 21.9,0.022c6.504,0.266 12.964,0.565 17.848,0.375c2.246,-0.088 4.04,-0.1 5.008,-0.584c2.278,-1.139 5.214,-1.279 8.313,-0.778c1.346,0.218 3.775,0.55 4.224,0.611c1.816,-0.739 5.622,-1.347 10.376,-1.478c9.202,-0.252 22.825,0.518 27.359,0.518c8.532,0 30.89,-2.646 46.897,-2.555c7.506,0.043 13.785,0.838 17.375,2.348c0.625,-0.047 2.221,-0.157 3.08,-0.111c1.329,0.071 2.575,0.375 3.702,0.939c0.692,0.346 1.81,0.269 3.105,0.292c2.244,0.041 4.84,-0.108 7.452,-0.243c6.243,-0.323 12.528,-0.238 16.094,1.153c0.065,0.008 0.134,0.015 0.192,0.02c5.968,0.514 25.88,-0.989 31.11,-1.944c0.066,-0.012 0.148,-0.029 0.219,-0.043c0.97,-0.39 2.045,-0.594 3.203,-0.596c0.91,-0.002 2.687,0.28 3.439,0.406c2.968,-0.957 8.828,-1.633 16.091,-1.771c16.634,-0.315 41.697,1.092 49.775,1.092c3.004,-0 14.552,-1.049 19.638,-0.887c1.636,0.052 2.976,0.372 4.006,0.763c0.742,-0.035 9.905,-0.463 14.794,-0.472c2.905,-0.005 5.352,0.351 6.901,0.862c0.021,0.003 0.042,0.006 0.06,0.008c4.767,0.575 22.397,0.233 25.563,0.233c10.647,-0 36.531,3.586 54.74,3.923c6.546,0.122 11.941,0.058 14.609,-1.276c1.404,-0.702 3.476,-1.246 6.002,-1.502c4.039,-0.41 9.668,-0.202 14.538,-0.219c2.3,-0.008 5.332,-0.324 6.129,-0.412c0.579,-0.417 1.32,-0.818 2.255,-1.12c1.685,-0.543 5.126,-0.862 9.358,-0.784c6.529,0.122 15.294,0.953 21.035,1.779c0.323,-0.202 0.671,-0.376 1.042,-0.516c2.357,-0.892 4.934,-0.165 6.502,1.628c0.538,0.139 1.188,0.321 1.576,0.477c1.037,0.416 1.947,1.001 2.715,1.769c0.827,0.827 1.781,2.941 2.139,3.777c0.549,0.779 1.181,2.081 1.196,4.013c0.024,3.193 -2.122,17.022 -2.122,19.679c0,18.15 3.548,34.832 3.548,53.222c0,3.271 1.673,17.571 1.522,23.984c-0.039,1.644 -0.311,3.027 -0.67,4.133c-0.03,1.271 -0.13,3.253 -0.458,3.908c-0.769,1.537 -1.087,3.086 -1.244,4.618c0.368,0.3 0.705,0.643 1.013,1.013c0.581,0.7 1.793,2.2 1.253,5.013c-0.296,1.544 -1.173,2.83 -2.36,3.676c-0.293,0.353 -0.611,0.727 -0.776,0.892c-0.406,0.406 -0.852,0.784 -1.33,1.138c-0.764,1.529 -1.804,3.01 -3.232,4.437c-0.909,0.91 -2.118,1.651 -3.587,2.159c-1.051,0.363 -2.453,0.438 -3.515,0.969c-3.291,1.646 -7.346,3.661 -11.243,3.661c-1.615,0 -3.078,-0.653 -4.14,-1.709c-4.397,0.492 -8.858,0.642 -12.415,0.292c-2.824,-0.279 -5.188,-0.904 -6.853,-1.737c-2.541,-1.27 -6.316,-1.208 -10.339,-0.98c-7.9,0.448 -16.612,2.107 -22.009,2.107c-5.701,-0 -31.222,1.781 -43.019,1.587c-4.262,-0.07 -7.241,-0.681 -8.267,-1.194c-1.138,-0.569 -3.703,-0.822 -6.835,-1.157c-9.285,-0.992 -22.727,-1.264 -27.54,-1.264l-55.755,0c-2.412,0 -5.515,-0.364 -8.58,-0.552c-2.119,-0.13 -4.22,-0.27 -5.783,0.251c-2.101,0.7 -4.381,0.797 -6.7,0.64c-1.532,-0.103 -3.093,-0.586 -4.451,-0.133c-9.219,3.073 -34.938,1.822 -45.955,1.822c-5.717,-0 -32.046,0.649 -44.45,-0.139c-4.059,-0.257 -6.985,-0.88 -8.208,-1.425c-0.175,-0.023 -2.263,-0.293 -3.879,-0.299c-4.186,-0.015 -9.746,0.462 -15.38,0.891c-7.127,0.544 -14.362,0.999 -19.46,0.545c-2.696,-0.241 -4.931,-0.77 -6.565,-1.488c-0.467,0.055 -1.94,0.23 -2.778,0.356c-2.377,0.356 -4.684,0.364 -6.566,-0.263c-2.453,-0.818 -6.584,0.092 -10.218,0.354c-3.952,0.285 -7.531,0.014 -9.867,-0.972c-0.519,0.053 -2.67,0.266 -3.785,0.305c-1.94,0.069 -3.738,-0.247 -5.284,-1.02c-1.679,-0.839 -5.099,-0.798 -9.232,-0.758c-12.507,0.12 -30.261,2.392 -37.308,2.392c-4.831,0 -13.011,-1.01 -20.217,-1.102c-3.678,-0.048 -7.054,-0.029 -9.089,0.989c-2.819,1.409 -6.459,1.496 -10.293,0.876c-1.463,-0.237 -2.964,-0.553 -4.412,-0.759c-0.94,-0.134 -1.831,-0.466 -2.529,-0.117c-0.322,0.161 -1.522,0.641 -3.563,0.754c-2.899,0.16 -10.256,0.196 -18.662,0.146c-14.087,-0.085 -31.14,-0.406 -34.888,-0.707c-1.418,-0.114 -2.319,-0.446 -2.718,-0.623c-0.178,-0.027 -2.126,-0.322 -3.366,-0.322c-1.224,0 -3.136,0.287 -3.358,0.321c-2.004,0.951 -4.452,1.152 -7.033,0.883c-1.015,-0.106 -2.859,-0.265 -3.265,-0.3c-2.746,1.271 -5.929,1.445 -9.241,1.125c-1.328,-0.129 -2.682,-0.326 -4.005,-0.426c-0.943,-0.071 -1.872,-0.23 -2.658,0.163c-1.529,0.764 -4.507,1.215 -8.157,0.952c-4.34,-0.313 -12.403,-1.186 -13.902,-1.35c-1.148,0.572 -2.729,1.1 -4.714,1.347c-6.433,0.801 -20.225,0.178 -24.006,0.178c-4.35,-0 -16.701,0.482 -25.108,0.081c-4.101,-0.195 -7.447,-0.759 -9.275,-1.426l-8.264,0.303c-0.718,0.353 -1.612,0.645 -2.69,0.759c-1.796,0.189 -5.434,-0.224 -6.364,-0.224c-6.83,-0 -14.47,0.487 -20.96,-0.55c-5.452,-0.872 -10.177,-2.811 -13.605,-6.239c-2.062,-2.062 -3.476,-5.611 -3.739,-10.01c-0.061,-1.02 -0.066,-2.092 -0.024,-3.195Zm0.988,-8.026c-0.089,0.08 -0.177,0.164 -0.266,0.253c0.086,-0.087 0.175,-0.17 0.265,-0.25c0,-0.001 0.001,-0.002 0.001,-0.003Zm741.552,-97.126c-1.115,-0.985 -1.854,-2.388 -1.972,-3.962l-0.211,-0.506c-6.481,-0.97 -24.613,-1.709 -27.11,-1.807c-0.58,0.37 -1.256,0.706 -2.039,0.981c-1.586,0.556 -3.96,0.912 -6.77,1.031c-4.22,0.179 -9.71,-0.083 -14.207,0.067c-1.931,0.064 -3.608,0.019 -4.538,0.484c-3.682,1.841 -11.046,2.681 -20.08,2.514c-18.136,-0.336 -43.918,-3.922 -54.522,-3.922c-2.929,0 -17.755,0.246 -24.499,-0.118c-2.562,-0.138 -4.407,-0.577 -5.23,-0.893c0.091,0.037 0.167,0.067 0.167,0.067c-0,-0 -12.842,0.452 -17.249,0.358c-1.679,-0.036 -3.061,-0.351 -4.131,-0.754c-1.31,0.064 -16.95,0.833 -20.02,0.833c-8.041,0 -32.993,-1.407 -49.552,-1.093c-4.004,0.075 -7.487,0.248 -10.042,0.587c-0.965,0.128 -1.721,0.178 -2.152,0.393c-1.114,0.557 -2.384,0.852 -3.776,0.854c-0.94,0.002 -2.808,-0.299 -3.511,-0.419c-0.734,0.214 -1.738,0.444 -2.979,0.625c-5.173,0.754 -17.006,1.705 -25.293,1.942c-3.346,0.096 -6.154,0.066 -7.847,-0.104c-1.651,-0.165 -2.797,-0.564 -3.41,-0.87c-0.764,-0.382 -1.918,-0.384 -3.233,-0.435c-3.318,-0.128 -7.339,0.191 -11.045,0.352c-5.076,0.221 -9.68,-0.08 -12.413,-1.139c-0.581,0.045 -2.206,0.159 -3.054,0.119c-1.343,-0.063 -2.591,-0.366 -3.709,-0.925c-2.438,-1.219 -7.195,-1.396 -12.888,-1.429c-15.984,-0.09 -38.31,2.556 -46.83,2.556c-4.48,0 -17.943,-0.772 -27.037,-0.523c-2.565,0.071 -5.686,0.474 -6.051,0.522c-2.244,1.036 -5.086,1.151 -8.08,0.666c-1.332,-0.215 -3.727,-0.543 -4.21,-0.609c-1.554,0.693 -3.883,1.241 -6.815,1.488c-5.353,0.451 -13.353,0.112 -21.416,-0.219c-6.473,-0.265 -12.99,-0.52 -18.028,-0.242c-2.439,0.134 -4.432,0.253 -5.59,0.831c-1.11,0.556 -3.482,1.028 -6.458,0.917c-2.991,-0.111 -8.477,-0.518 -9.864,-0.623c-0.264,0.106 -0.553,0.203 -0.869,0.288c-0.953,0.256 -3.176,0.524 -6.252,0.657c-9.998,0.429 -30.994,0.076 -40.559,-0.864c-3.073,-0.302 -5.285,-0.832 -6.332,-1.253c-0.233,-0.025 -2.712,-0.283 -4.58,-0.282c-4.754,0.002 -11.062,0.455 -16.648,0.793c-4.709,0.284 -8.946,0.479 -11.549,0.339c-1.771,-0.095 -3.124,-0.418 -4.009,-0.758c-0.306,0.013 -17.892,0.741 -24.006,0.764c-2.318,0.009 -4.025,-0.247 -4.854,-0.522c-0.481,-0.158 -0.897,-0.35 -1.259,-0.557c-1.864,0.026 -14.848,0.201 -17.448,0.201c-10.781,-0 -22.354,1.52 -33.454,1.52c-6.671,0 -11.845,-1.52 -18.754,-1.52c-2.029,-0 -11.556,0.653 -15.439,0.925c-0.177,0.429 -0.363,0.869 -0.507,1.183c-0.268,0.582 -0.568,1.136 -0.905,1.654c0.083,2.475 0.422,12.688 0.422,14.694c0,1.286 -0.016,2.56 -0.046,3.825c0.03,0.241 0.046,0.487 0.046,0.737c0,0.802 -0.083,2.324 -0.228,4.267c-0.53,11.012 -1.799,21.629 -1.799,33.748l-0,26.864c-0,2.272 -0.164,8.844 -0.545,11.751c-0.318,2.426 -1.288,3.897 -1.707,4.377c-0.478,0.548 -0.978,0.966 -1.49,1.278c-0.173,1.249 -0.292,2.504 -0.339,3.71c-0.047,1.183 -0.022,2.314 0.119,3.327c0.07,0.498 0.3,1.248 0.366,1.458c2.349,2.223 5.912,2.803 9.749,3.124c5.272,0.441 11.077,0.076 16.358,0.076c0.668,0 4.215,0.229 4.985,0.279c1,-0.388 2.248,-0.736 3.695,-0.909c2.693,-0.322 6.464,-0.446 8.982,-0.248c1.788,0.14 3.193,0.528 4.019,0.894c0.273,0.042 3.15,0.475 5.471,0.586c8.22,0.391 20.296,-0.095 24.549,-0.095c3.623,0 21.237,-0.246 23.451,-0.277c0.669,-0.414 1.489,-0.77 2.481,-0.995c1.317,-0.298 3.379,-0.372 5.831,-0.175c4.348,0.35 13.225,1.215 14.278,1.318c2.728,-1.204 5.85,-1.367 9.08,-1.059c1.337,0.128 2.697,0.327 4.022,0.429c0.927,0.072 1.837,0.241 2.603,-0.142c2.061,-1.03 4.578,-1.25 7.218,-0.98c1.016,0.104 2.879,0.27 3.282,0.306c1.773,-0.757 4.917,-1.317 8.093,-1.317c2.702,-0 5.382,0.406 7.213,0.993c0.203,0.015 0.459,0.032 0.687,0.044c8.243,0.441 43.06,0.872 50.849,0.498c0.099,-0.004 0.205,-0.011 0.306,-0.017c2.634,-0.946 5.834,-0.944 9.181,-0.402c1.464,0.237 2.965,0.553 4.413,0.759c0.939,0.133 1.83,0.466 2.529,0.116c3.264,-1.632 8.595,-2.304 14.493,-2.228c7.153,0.092 15.271,1.102 20.066,1.102c7.026,-0 24.726,-2.272 37.195,-2.392c6.192,-0.06 11.302,0.581 14.106,1.772c0.554,-0.057 2.687,-0.271 3.812,-0.306c1.88,-0.059 3.638,0.24 5.173,0.978c0.157,0.021 1.059,0.137 1.639,0.141c1.483,0.012 3.166,-0.138 4.875,-0.288c4.569,-0.402 9.27,-0.618 12.356,0.316c0.356,-0.046 2.441,-0.317 3.561,-0.463c2.64,-0.343 5.119,-0.124 7.091,0.862c1.32,0.66 3.652,0.653 6.447,0.666c5.779,0.026 13.089,-0.661 19.664,-1.14c5.613,-0.41 10.738,-0.654 14.202,-0.336c2.06,0.189 3.718,0.611 4.912,1.133c0.6,0.067 5.133,0.56 9.237,0.683c13.256,0.396 33.772,-0.106 38.71,-0.106c10.123,0 33.769,1.605 42.24,-1.219c2.069,-0.689 4.334,-0.783 6.657,-0.623c1.529,0.106 3.105,0.579 4.494,0.116c4.827,-1.609 12.927,-0.301 18.078,-0.301l55.755,-0c5.031,-0 19.082,0.293 28.788,1.33c4.525,0.484 8.235,1.253 10.252,2.068c0.664,0.039 4.777,0.268 8.593,0.205c12.869,-0.212 33.038,-1.576 38.028,-1.576c5.235,0 13.682,-1.654 21.345,-2.088c6.355,-0.36 12.243,0.195 16.256,2.201c1.002,0.501 2.61,0.596 4.465,0.667c3.922,0.149 8.713,-0.308 12.925,-1.07c3.346,-0.605 7.516,-2.095 7.992,-2.267c1.194,-1.122 2.712,-2.028 4.353,-2.808c0.1,-0.048 0.202,-0.094 0.305,-0.138c0.114,-1.055 0.103,-2.141 0.183,-3.226c0.218,-2.935 0.591,-5.928 1.817,-8.937c-0.046,-0.805 -0.076,-1.79 0.018,-2.248c0.096,-0.467 0.235,-0.897 0.407,-1.293c-0.171,-2.536 -1.429,-21.332 -1.429,-24.62c-0,-18.39 -3.548,-35.072 -3.548,-53.222c-0,-1.681 0.857,-9.138 1.481,-14.35Zm-728.512,93.547c0.054,0.095 0.106,0.191 0.155,0.29c-0.05,-0.101 -0.102,-0.198 -0.154,-0.292c-0.001,0.001 -0.001,0.001 -0.001,0.002Z"/></svg>