<?xml version="1.0" encoding="UTF-8" standalone="no"?><!DOCTYPE svg PUBLIC "-//W3C//DTD SVG 1.1//EN" "http://www.w3.org/Graphics/SVG/1.1/DTD/svg11.dtd"><svg width="100%" height="100%" viewBox="0 0 596 596" version="1.1" xmlns="http://www.w3.org/2000/svg" xmlns:xlink="http://www.w3.org/1999/xlink" xml:space="preserve" xmlns:serif="http://www.serif.com/" style="fill-rule:evenodd;clip-rule:evenodd;stroke-linejoin:round;stroke-miterlimit:2;"><path d="M267.284,386.716c-3.238,-1.083 -6.187,-3.137 -8.369,-6.089c-1.171,-1.584 -2.03,-3.303 -2.587,-5.084l-5.237,-4.826c-5.856,-3.185 -10.917,-7.784 -15.443,-13.115c-4.641,-5.467 -8.556,-11.923 -13.263,-16.631c-1.026,-1.026 -1.896,-2.15 -2.609,-3.343c-5.017,-3.011 -8.378,-8.505 -8.378,-14.777c0,-2.394 1.513,-9.696 8.794,-17.078c9.555,-9.689 34.07,-29.524 40.394,-35.849c3.773,-3.772 7.529,-7.769 11.266,-11.909c28.881,-40.066 62.671,-76.171 96.888,-110.388c0.79,-0.79 1.791,-1.239 2.822,-1.348c8.219,-8.784 15.827,-18.216 23.725,-27.243c9.308,-10.637 19.948,-19.962 29.855,-29.87c4.887,-4.886 10.928,-10.104 14.821,-13.998c0.727,-0.726 2.677,-1.885 5.599,-1.308c1.879,0.371 5.008,1.52 7.411,2.554c1.717,0.558 3.374,1.398 4.905,2.53c2.063,1.525 3.716,3.357 4.93,5.506c14.702,14.554 33.318,25.681 46.249,38.612c2.004,2.003 7.147,8.225 8.883,10.338c2.909,1.837 5.231,4.52 6.619,7.702c1.721,1.663 3.276,3.362 4.792,4.878c0.918,0.918 2.249,3.205 0.721,6.21c-0.687,1.352 -2.569,3.729 -4.065,5.211c-0.966,0.956 -1.877,1.595 -2.404,1.859c-1.342,0.67 -2.983,2.309 -4.783,4.114c-3.51,3.52 -7.314,7.729 -10.145,9.852c-1.941,1.456 -4.262,2.841 -6.409,4.329c-28.739,32.729 -99.134,98.451 -112.573,106.067c-0.528,0.517 -7.083,6.959 -11.476,12.155c-10.194,12.059 -21.637,27.039 -27.908,33.309c-6.528,6.529 -14.56,13.712 -19.525,18.677c0.051,-0.051 0.302,-0.311 0.302,-0.311c0,0 -6.144,5.961 -7.536,6.785c-1.379,0.816 -2.703,1.379 -3.946,1.759c-2.5,2.944 -5.379,5.526 -8.471,7.933c-3.243,2.524 -7.373,4.205 -9.381,8.221c-1.04,2.079 -4.708,6.884 -8.57,10.458c-3.408,3.153 -7.033,5.318 -8.995,6.085c-5.878,2.296 -10.634,1.163 -13.76,-0.211c-1.121,-0.493 -2.17,-1.08 -3.143,-1.766Zm-9.749,-24.371c1.169,-2.219 2.842,-4.216 4.993,-5.805c-2.202,1.627 -3.879,3.559 -4.993,5.805Zm177.702,-257.6c-0.997,-1.033 -1.845,-2.171 -2.538,-3.382c0.694,1.261 1.555,2.402 2.565,3.43c-0.009,-0.016 -0.018,-0.032 -0.027,-0.048Zm-264.733,327.575c-0.885,0.565 -1.551,0.853 -1.85,0.92c-0.822,0.183 -1.567,0.138 -2.244,-0.039c-0.817,-0.213 -3.604,-0.892 -3.604,-5.085c-0,-9.42 3.439,-24.964 7.287,-32.659c1.339,-2.679 2.012,-6.305 2.484,-10.352c0.811,-6.949 0.91,-15.029 1.529,-22.345c0.804,-9.494 2.798,-17.75 7.053,-22.005c0.005,-0.005 0.011,-0.011 0.016,-0.017c-0.028,-0.491 0.011,-0.956 0.097,-1.385c0.249,-1.239 0.876,-2.384 2.114,-3.298c2.082,-1.54 5.023,-1.098 6.563,0.985c0.519,0.702 0.813,1.503 0.895,2.314c0.389,0.328 0.874,0.723 1.28,1.015c1.899,1.366 4.066,2.616 4.639,2.903c3.8,1.9 9.601,6.868 16.054,13.304c13.98,13.941 31.613,34.871 38.647,41.906c0.571,0.57 2.801,2.574 4.35,4.529c1.018,1.286 1.762,2.608 2.101,3.7c0.771,2.486 0.155,4.536 -1.357,6.048c-1.12,1.12 -3.859,2.498 -7.532,3.482c-5.57,1.492 -13.614,2.631 -18.392,2.917c-0.006,0 -0.011,0.001 -0.017,0.002c-2.495,0.382 -4.993,0.759 -7.078,1.259c-1.099,0.263 -2.651,0.889 -2.741,0.926c-0.77,0.662 -3.191,1.914 -6.867,2.993c-11.154,3.276 -36.613,8.471 -41.339,8.471c-0.75,0 -1.459,-0.176 -2.088,-0.489Zm-129.247,-329.314c0.257,-0.601 2.144,-5.007 3.178,-7.453c2.169,-5.128 4.95,-10.022 9.015,-14.088c5.428,-5.428 9.726,-11.424 14.432,-16.13c4.857,-4.857 14.428,-8.933 25.319,-11.373c6.627,-1.485 17.577,-4.047 19.636,-4.529c1.935,-1.458 5.573,-3.474 11.223,-3.67c7.283,-0.254 42.254,0.096 45.986,0.096c46.304,0 92.638,-2.546 139.222,-2.546c29.837,-0 59.284,0.849 88.287,0.849c0.069,-0 0.193,-0.008 0.352,-0.021c1.512,-0.925 3.193,-1.63 5.01,-2.061c9.249,-2.195 18.539,3.532 20.734,12.781c1.713,7.221 -0.087,14.513 -8.2,19.622c-3.926,2.473 -15.132,4.124 -17.896,4.124c-29.003,-0 -58.45,-0.849 -88.287,-0.849c-46.584,-0 -92.918,2.547 -139.222,2.547c-3.089,-0 -33.28,-0.085 -42.273,-0.111c-4.472,2.052 -10.185,3.88 -16.517,5.197c-6.627,1.379 -18.104,4.509 -19.635,4.928c-4.468,4.604 -8.625,10.313 -13.814,15.502c-2.043,2.044 -2.414,5.083 -3.444,7.6c-1.733,4.238 -3.784,8.12 -6.42,11.374c-4.403,12.491 -10.966,49.924 -12.958,74.574c-0.505,6.248 -0.366,14.088 -0.33,15.717c1.883,4.963 2.57,12.1 1.968,19.967c-0.285,3.727 -0.761,7.713 -0.94,11.419c-0.071,1.467 -0.376,2.837 -0.032,3.868c2.165,6.494 2.249,14.025 1.502,21.73c-0.278,2.861 -0.65,5.754 -0.801,8.557c-0.076,1.422 -0.51,2.816 0.062,3.96c1.001,2.002 2.685,9.062 2.918,19.497c0.579,25.996 -1.948,84.267 -1.948,96.867c-0,23.067 0.104,55.837 4.746,82.853c2.49,14.493 5.582,27.305 12.281,34.004c3.509,3.509 8.051,6.584 11.89,9.716c9.186,0.608 72.347,4.765 83.745,4.765c8.484,-0 45.997,-2.062 45.997,-2.062c-0,0 -0.714,0.313 -1.016,0.46c1.495,-0.721 6.922,-2.246 14.133,-2.296c7.056,-0.05 17.141,0.445 21.769,1.067c0.575,0.077 1.121,0.166 1.638,0.264c6.329,-0.221 21.67,-2.204 29.498,-2.184c4.51,0.011 8.045,0.807 10.332,1.629c-0.307,-0.124 -0.532,-0.213 -0.532,-0.213c0,0 50.968,2.344 62.864,0.803c0.11,-0.014 0.255,-0.036 0.374,-0.054c3.964,-1.215 10.088,-1.983 17.398,-1.59c7.25,0.39 16.436,1.507 24.2,1.901c2.553,0.13 6.09,0.033 6.985,0.005c3.082,-1.452 7.481,-2.791 13.121,-2.985c11.252,-0.387 43.12,0.207 44.206,0.227c3.422,-1.064 8.569,-2.087 11.06,-2.555c2.713,-2.307 5.727,-4.373 8.808,-6.278c3.101,-1.916 6.406,-3.395 8.587,-5.4c0.212,-0.558 1.141,-3.032 1.508,-4.65c0.682,-3.014 1.139,-6.315 1.558,-9.659c1.401,-11.19 2.85,-22.636 6.093,-30.159c-0.129,-1.596 -0.583,-7.414 -0.632,-10.472c-0.084,-5.279 0.81,-10.173 2.814,-14.364c0.068,-0.543 0.704,-5.733 0.713,-9.145c0.016,-6.594 -0.492,-14.041 -0.834,-20.856c-0.567,-11.312 0.131,-21.365 1.839,-27.133c0.002,-0.95 0.026,-14.782 0.324,-19.42c0.199,-3.106 0.875,-5.712 1.719,-7.825c-0.236,-3.226 -1.288,-18.078 -0.984,-22.927c0.229,-3.639 1.136,-6.589 2.262,-8.899c3.042,-21.218 -1.573,-105.863 -1.573,-119.272c-0,-9.506 7.717,-17.223 17.222,-17.223c9.506,0 17.223,7.717 17.223,17.223c-0,12.297 3.566,82.853 2.126,113.464c-0.399,8.473 -1.449,14.687 -2.502,17.65c-0.093,0.262 -0.188,0.517 -0.287,0.766c0.34,4.389 1.379,18.86 0.744,24.136c-0.288,2.394 -0.85,4.495 -1.566,6.316c0.022,3.742 0.045,15.209 -0.474,19.875c-0.338,3.036 -1.023,5.532 -1.75,7.38c0.003,1.49 0.047,13.479 0.461,21.4c0.773,14.784 0.205,29.931 -2.996,38.003c0.122,1.51 0.586,7.429 0.636,10.521c0.087,5.445 -0.866,10.479 -3.002,14.751c-3.078,6.158 -2.769,17.292 -4.286,26.853c-1.86,11.726 -5.782,21.818 -11.674,27.709c-2.859,2.86 -6.645,5.5 -10.826,8.038c-3.208,1.948 -6.891,3.737 -9.548,6.394c-2.672,2.673 -6.701,5.038 -11.788,6.327c-2.728,0.691 -8.473,1.57 -9.256,1.688c-3.513,1.285 -10.234,2.478 -18.591,2.539c-11.633,0.085 -33.616,-0.364 -37.64,-0.449c-4.542,1.835 -10.686,3.11 -17.95,2.943c-10.286,-0.238 -30.247,-1.849 -32.957,-2.071c-1.335,0.464 -3.031,0.921 -5.089,1.244c-4.943,0.776 -15.339,1.248 -27.036,1.296c-16.699,0.07 -36.174,-0.625 -45.068,-1.769c-2.404,-0.31 -4.43,-0.753 -6.05,-1.214c-3.399,0.29 -25.425,2.15 -30.809,2.15c0.706,0 2.171,-0.148 2.171,-0.148c-0,-0 -5.627,-0.029 -9.245,-1.106c0.993,0.345 2.079,0.692 2.079,0.692l-20.088,-0.661c-3.595,1.04 -8.702,1.999 -14.679,2.515c-13.938,1.205 -34.323,1.255 -41.734,1.255c-11.812,0 -62.315,-1.176 -84.718,-4.302c-11.04,-1.54 -17.935,-5.475 -19.993,-7.534c-4.238,-4.238 -10.656,-8.109 -15.28,-12.733c-8.247,-8.247 -14.662,-21.509 -18.787,-37.802c-7.868,-31.073 -8.329,-74.36 -8.329,-103.412c-0,-13.918 3.242,-84.591 1.643,-103.047c-0.006,-0.078 -0.015,-0.162 -0.023,-0.249c-2.473,-6.196 -3.039,-13.314 -2.479,-20.774c0.404,-5.379 2.421,-11.065 0.893,-15.649c-1.797,-5.392 -2.048,-13.021 -1.388,-20.957c0.364,-4.375 0.736,-11.755 0.805,-13.161c-1.41,-3.829 -2.579,-10.539 -2.365,-19.288c0.365,-14.978 3.517,-38.942 7.231,-59.425c2.967,-16.362 6.392,-30.575 8.899,-36.935c1.657,-4.204 3.657,-6.928 5.102,-8.46Zm348.901,-48.242c-0.689,2.548 -0.689,5.237 -0.022,8.05c-0.65,-2.742 -0.605,-5.487 0.022,-8.05Zm171.052,61.422c-0.228,0.521 -0.555,1.01 -0.982,1.437c-1.453,1.453 -2.5,3.734 -4.117,5.352c-1.359,1.359 -2.967,2.378 -4.553,3.312c-0.893,0.526 -1.792,0.974 -2.446,1.628c-1.167,1.167 -2.827,1.847 -4.923,1.569c-2.554,-0.338 -6.813,-3.375 -7.477,-4.039c-0.244,-0.243 -0.495,-0.499 -0.751,-0.766c-0.094,-0.019 -0.189,-0.041 -0.286,-0.067c-0.652,-0.17 -1.653,-0.654 -1.861,-0.758c-7.369,-3.685 -16.01,-11.965 -22.216,-18.17c-5.131,-5.131 -10.902,-8.916 -15.406,-13.35c-0.506,-0.381 -1.411,-1.089 -1.765,-1.533c-0.373,-0.467 -0.632,-0.943 -0.807,-1.404c-2.105,-1.545 -3.914,-3.644 -5.704,-5.804c-1.36,-1.641 -2.693,-3.343 -4.421,-4.495c-4.282,-2.855 -10.969,-10.616 -13.324,-14.989c-0.487,-0.587 -1.464,-1.801 -1.654,-2.318c-0.525,-1.431 -0.381,-2.749 0.209,-3.929c0.139,-0.278 0.282,-0.549 0.429,-0.813c-0.063,-0.359 -0.101,-0.759 -0.101,-1.205c0,-1.828 1.048,-3.414 2.575,-4.188c0.609,-0.966 1.347,-2.089 1.682,-2.424l9.88,-9.881c4.607,-4.606 12.76,-8.116 20.624,-7.86c0.266,-0.053 0.533,-0.101 0.8,-0.145c7.457,-1.204 14.576,0.829 19.722,5.975c3.958,3.958 8.581,10.279 12.734,14.432c5.89,5.889 19.975,15.637 26.394,26.395c3.806,6.379 5.633,13.144 5.144,19.957c-0.421,5.867 -2.458,12.022 -7.399,18.081Z" style="fill:#fff;"/></svg>