<?xml version="1.0" encoding="UTF-8" standalone="no"?>
<!DOCTYPE svg PUBLIC "-//W3C//DTD SVG 1.1//EN" "http://www.w3.org/Graphics/SVG/1.1/DTD/svg11.dtd">
<svg width="100%" height="100%" viewBox="0 0 1890 3011" version="1.1" xmlns="http://www.w3.org/2000/svg" xmlns:xlink="http://www.w3.org/1999/xlink" xml:space="preserve" xmlns:serif="http://www.serif.com/" style="fill-rule:evenodd;clip-rule:evenodd;stroke-linejoin:round;stroke-miterlimit:2;">
    <g transform="matrix(1,0,0,1,-295.276,-142.563)">
        <path d="M1685.53,1491.75L1685.53,921.264C1685.53,675.459 1485.96,475.896 1240.16,475.896C994.352,475.896 794.789,675.459 794.789,921.265L794.789,963.037L461.455,963.037L461.455,921.265C461.455,491.487 810.38,142.563 1240.16,142.563C1669.93,142.563 2018.86,491.487 2018.86,921.265L2018.86,1491.75C2110.58,1491.75 2185.04,1566.21 2185.04,1657.92L2185.04,2987.36C2185.04,3079.08 2110.58,3153.54 2018.86,3153.54L461.455,3153.54C369.738,3153.54 295.276,3079.08 295.276,2987.36L295.276,1657.92C295.276,1566.21 369.738,1491.75 461.455,1491.75L1685.53,1491.75Z"/>
    </g>
</svg>
