<?xml version="1.0" encoding="UTF-8" standalone="no"?>
<!DOCTYPE svg PUBLIC "-//W3C//DTD SVG 1.1//EN" "http://www.w3.org/Graphics/SVG/1.1/DTD/svg11.dtd">
<svg width="100%" height="100%" viewBox="0 0 1890 2556" version="1.1" xmlns="http://www.w3.org/2000/svg" xmlns:xlink="http://www.w3.org/1999/xlink" xml:space="preserve" xmlns:serif="http://www.serif.com/" style="fill-rule:evenodd;clip-rule:evenodd;stroke-linejoin:round;stroke-miterlimit:2;">
    <g transform="matrix(1,0,0,1,-295.276,-598.493)">
        <path d="M461.455,1491.75L461.455,1377.19C461.455,947.418 810.38,598.493 1240.16,598.493C1669.93,598.493 2018.86,947.418 2018.86,1377.19L2018.86,1491.75C2110.58,1491.75 2185.04,1566.21 2185.04,1657.92L2185.04,2987.36C2185.04,3079.08 2110.58,3153.54 2018.86,3153.54L461.455,3153.54C369.738,3153.54 295.276,3079.08 295.276,2987.36L295.276,1657.92C295.276,1566.21 369.738,1491.75 461.455,1491.75ZM1685.53,1491.75L1685.53,1377.19C1685.53,1131.39 1485.96,931.826 1240.16,931.826C994.352,931.826 794.789,1131.39 794.789,1377.19L794.789,1491.75L1685.53,1491.75Z"/>
    </g>
</svg>
