<?xml version="1.0" encoding="UTF-8" standalone="no"?><!DOCTYPE svg PUBLIC "-//W3C//DTD SVG 1.1//EN" "http://www.w3.org/Graphics/SVG/1.1/DTD/svg11.dtd"><svg width="100%" height="100%" viewBox="0 0 596 596" version="1.1" xmlns="http://www.w3.org/2000/svg" xmlns:xlink="http://www.w3.org/1999/xlink" xml:space="preserve" xmlns:serif="http://www.serif.com/" style="fill-rule:evenodd;clip-rule:evenodd;stroke-linejoin:round;stroke-miterlimit:2;"><path d="M167.114,129.017c11.741,-3.959 23.709,-8.238 34.558,-13.663c3.284,-1.641 23.887,-9.029 28.396,-10.907c0.077,-0.031 0.167,-0.07 0.242,-0.103c0.516,-0.334 1.2,-0.682 2.073,-0.973c2.414,-0.806 7.879,-1.768 14.243,-2.889c6.653,-1.173 14.357,-2.562 20.246,-4.286c3.057,-0.895 5.583,-1.679 6.724,-2.82c1.745,-1.745 4.527,-1.827 6.37,-0.247c2.1,0.466 3.673,2.342 3.673,4.582c-0,2.182 -0.829,4.958 -2.223,7.699c-1.76,3.462 -4.357,6.92 -6.263,8.826c-0.634,0.634 -0.965,1.803 -1.351,2.888c-0.711,1.998 -1.296,3.961 -1.833,5.035c-6.581,13.162 -18.303,28.987 -25.905,44.19c-4.39,8.78 -10.988,17.404 -15.746,26.921c-3.873,7.746 -6.752,15.535 -10.667,23.365c-9.79,19.58 -22.848,38.078 -32.508,57.397c-6.833,13.667 -16.386,26.169 -22.857,39.111c-4.6,9.2 -19.21,32.221 -27.564,48.154c-2.035,3.882 -3.687,7.314 -4.676,9.971c-0.441,1.183 -0.788,2.108 -0.788,2.761c-0,2.59 -2.103,4.693 -4.693,4.693c-2.591,-0 -4.693,-2.103 -4.693,-4.693c-0,-0.031 -0,-0.062 0,-0.094c-0.05,-0.046 -0.1,-0.094 -0.15,-0.143c-1.751,-1.752 -3.392,-5.825 -4.468,-11.153c-1.87,-9.259 -2.757,-23.077 -5.554,-28.67c-2.572,-5.146 -3.48,-11.465 -4.284,-17.795c-0.665,-5.241 -1.225,-10.494 -3.335,-14.713c-5.127,-10.256 -7.282,-23.221 -10.921,-34.139c-0.371,-1.113 -0.586,-2.405 -0.759,-3.728c-0.127,-0.976 -0.127,-2.003 -0.51,-2.768c-4.122,-8.244 -7.782,-22.031 -10.006,-30.929c-1.604,-6.414 -6.062,-27.012 -10.216,-40.412c-1.005,-3.24 -1.98,-6.036 -2.895,-8.04c-0.349,-0.764 -0.588,-1.381 -0.893,-1.686c-0.942,-0.941 -1.988,-2.75 -2.829,-5.053c-1.213,-3.327 -2.214,-8.05 -3.129,-9.881c-0.707,-1.413 -1.8,-4.878 -1.874,-5.112c-0.281,-0.344 -0.598,-0.835 -0.879,-1.362c-0.164,-0.173 -0.288,-0.33 -0.38,-0.454c-1.539,-2.083 -1.098,-5.024 0.985,-6.563c0.704,-0.521 1.506,-0.815 2.319,-0.896l0.007,-0.001c0.429,-0.081 1.08,-0.186 1.848,-0.034c1.994,-0.266 7.132,-0.991 8.199,-1.525c1.713,-0.856 3.813,-1.109 6.021,-1.045c0.804,0.024 1.626,0.082 2.422,0.092c0.437,0.006 0.867,0.108 1.208,-0.063c4.793,-2.396 10.356,-3.307 16.033,-3.967c4.795,-0.557 9.677,-0.927 14.042,-2.382c7.535,-2.512 16.439,-2.094 23.873,-4.572c4.286,-1.428 8.697,-2.252 13.099,-3.078l18.268,-4.846Zm185.777,-81.069c1.704,0.76 3.614,1.47 5.521,2.236c5.299,2.128 10.615,4.495 13.757,7.637c2.509,2.508 6.961,4.303 11.258,6.145c5.515,2.363 10.838,4.775 13.631,7.569c3.06,3.06 8.513,4.749 12.495,6.74c14.442,7.221 26.335,15.199 39.619,21.841c8.391,4.196 32.601,16.007 37.283,20.689c1.39,1.39 4.557,2.504 7.699,3.854c4.391,1.886 8.793,4.003 11.095,6.305c1.832,1.831 1.832,4.805 0,6.637c-0.94,0.939 -2.18,1.397 -3.412,1.372c-0.858,0.938 -2.092,1.526 -3.462,1.526c-0.678,-0 -3.023,-0.464 -6.338,-1.44c-10.622,-3.129 -33.909,-11.113 -38.268,-13.2c-0.21,-0.017 -1.225,-0.099 -1.777,-0.137c-1.441,-0.1 -2.812,-0.378 -3.97,-0.957c-4.972,-2.486 -10.781,-3.369 -16.602,-4.342c-6.76,-1.129 -13.538,-2.347 -19.461,-5.308c-1.344,-0.672 -3.075,-0.475 -4.715,-0.603c-2.127,-0.167 -4.179,-0.543 -5.952,-1.429c-2.25,-1.125 -5.097,-0.935 -7.808,-1.156c-2.832,-0.231 -5.569,-0.707 -7.938,-1.892c-2.35,-1.175 -5.881,-1.32 -9.469,-1.66c-4.836,-0.457 -9.761,-1.097 -13.388,-2.911c-1.198,-0.599 -2.739,-0.472 -4.205,-0.626c-1.935,-0.204 -3.809,-0.588 -5.446,-1.406c-10.958,-5.479 -24.404,-7.916 -36.465,-11.936c-2.603,-0.867 -7.122,-1.567 -10.455,-2.76c-1.627,-0.582 -3.033,-1.304 -4.115,-2.108l-2.955,-0.485c-1.397,-0.075 -4.326,-0.803 -4.741,-1.032c-2.473,-1.364 -2.521,-3.493 -2.437,-4.519c0.041,-0.501 0.304,-2.992 2.686,-3.955c-0.084,-12.686 -0.493,-25.786 -0.493,-38.355l-0,-20.224c-0.856,-1.685 -0.629,-3.781 0.682,-5.249c0.866,-1.923 2.438,-2.196 4.011,-1.616c1.748,-0.645 3.497,-0.235 4.274,2.327c0.393,0.163 0.794,0.304 1.179,0.485c1.389,0.653 2.733,1.445 3.96,2.673c7.907,7.907 20.346,13.235 28.445,21.333c1.588,1.589 3.894,2.379 5.948,3.363c2.19,1.049 4.206,2.22 5.734,3.748c0.123,0.123 0.253,0.243 0.388,0.361l4.207,2.465Zm-66.796,22.836c0.155,2.792 0.454,5.788 0.7,8.351c1.723,0.695 2.939,2.383 2.939,4.353c0,2.457 -1.892,4.476 -4.297,4.677c-0.804,0.646 -1.825,1.032 -2.935,1.032c-0.338,0 -0.666,-0.035 -0.984,-0.103l-1.576,0.385c-0.747,0.476 -1.62,0.734 -2.52,0.734l-1.016,0c-12.386,0 -29.872,4.569 -41.076,10.171c-3.02,1.51 -6.601,2.142 -10.222,2.702c-2.635,0.408 -5.303,0.744 -7.555,1.87c-2.153,1.076 -4.644,1.569 -7.217,1.853c-2.441,0.27 -5.003,0.193 -7.006,1.194c-6.566,3.284 -15.505,5.029 -24.5,6.715c-8.078,1.515 -16.208,2.973 -22.23,5.984c-1.699,0.849 -3.644,1.288 -5.656,1.572c-1.732,0.245 -3.555,0.24 -5.011,0.968c-1.557,0.778 -3.321,1.225 -5.133,1.544c-1.575,0.277 -3.218,0.346 -4.518,0.995c-10.295,5.148 -23.08,5.953 -33.523,11.175c-6.192,3.095 -13.496,3.7 -19.302,6.603c-1.087,0.543 -3.064,0.8 -4.382,0.916c-0.677,0.379 -1.458,0.595 -2.288,0.595c-2.59,0 -4.693,-2.102 -4.693,-4.693c-0,-1.522 1.054,-2.756 2.23,-3.658c0.21,-0.232 0.445,-0.445 0.705,-0.635l0.001,-0.001c0.558,-0.765 1.322,-1.323 2.174,-1.635c7.485,-6.632 22.823,-16.271 31.516,-20.617c4.173,-2.087 7.8,-5.424 12.19,-7.619c11.313,-5.657 21.888,-11.452 33.524,-17.27c13.41,-6.705 24.915,-16.313 39.218,-21.08c9.736,-3.245 17.992,-10.4 27.937,-13.715c1.479,-0.493 7.05,-3.089 13.052,-6.022l20.946,-12.701c2.966,-2.642 6.399,-5.338 9.578,-6.927c2.845,-1.423 5.236,-3.989 7.412,-6.096c2.066,-2 4.017,-3.682 5.794,-4.571c0.43,-0.215 0.803,-0.744 1.197,-1.192c0.893,-1.015 1.674,-2.019 2.155,-2.5c0.475,-0.476 1.76,-1.292 2.458,-1.575c0.824,-0.333 1.5,-0.379 1.844,-0.383c2.061,-0.024 3.203,1.033 3.853,1.916c0.6,0.814 0.976,1.806 0.91,3.039c-0.005,0.099 -0.011,0.222 -0.025,0.365c0.335,0.568 0.571,1.276 0.623,2.166c0.02,0.332 0.015,0.807 -0.118,1.393c-0.053,0.231 -0.391,1.167 -0.538,1.573c-0.095,1.409 -0.488,2.437 -0.488,3.967c0,4.652 -1.524,9.694 -1.524,14.223c0,6.622 0.317,18.106 -2.476,23.837c-0.018,0.098 -0.095,0.544 -0.151,1.001l0.004,5.124Zm-161.74,44.214c-1.093,0.588 -2.142,1.242 -3.168,1.921l3.168,-1.921Zm-15.104,9.158c-0.537,0.295 -1.088,0.601 -1.649,0.919c0.089,-0.028 0.179,-0.055 0.268,-0.082l1.381,-0.837Zm178.307,-99.573c0.66,-0.106 1.48,-0.423 2.325,-1.268c-0.661,0.662 -1.472,1.084 -2.325,1.268Zm-5.725,-9.68c0.222,-0.46 0.524,-0.891 0.906,-1.273c-0.461,0.461 -0.735,0.9 -0.906,1.273Zm86.711,466.519c-3.011,3.718 -5.604,7.367 -7.178,10.515c-0.976,1.953 -2.581,3.865 -4.45,5.753c-2.026,2.047 -4.436,4.085 -6.002,6.434c-2.061,3.093 -4.068,6.23 -6.681,8.843c-4.473,4.472 -17.002,16.763 -19.439,21.637c-0.696,1.394 -1.889,2.736 -3.329,3.937c-1.244,1.038 -2.729,1.954 -3.645,2.87c-3.469,3.469 -15.589,16.505 -18.027,21.016c-0.447,2.126 -2.335,3.724 -4.593,3.724c-2.196,-0 -4.042,-1.512 -4.553,-3.55c-0.737,-0.554 -1.589,-1.315 -2.506,-2.27c-3.397,-3.536 -8.486,-10.337 -13.088,-15.759c-2.502,-2.949 -4.7,-5.529 -6.333,-6.345c-3.121,-1.561 -6.718,-5.708 -10.1,-9.992c-2.404,-3.046 -4.591,-6.243 -6.662,-7.278c-1.082,-0.541 -6.206,-5.374 -12.684,-12.226c-14.069,-14.881 -35.698,-39.264 -37.161,-42.191c-1.729,-3.457 -5.925,-6.983 -9.963,-10.537c-5.052,-4.447 -9.921,-8.914 -11.878,-12.828c-0.635,-1.269 -3.056,-3.703 -6.085,-6.722c-8.243,-8.214 -21.02,-19.534 -24.02,-22.534c-1.888,-1.888 -3.745,-4.651 -5.892,-5.724c-0.683,-0.342 -3.689,-2.777 -4.936,-3.798c-0.861,-0.28 -1.632,-0.806 -2.208,-1.519c-0.302,-0.267 -0.533,-0.528 -0.697,-0.761c-1.485,-2.122 -0.968,-5.051 1.154,-6.536c1.613,-1.129 3.692,-1.101 5.249,-0.091c0.771,0.09 3.239,0.361 5.142,0.395c4.356,0.078 9.297,-0.136 11.094,-0.136c18.941,-0 39.003,-3.048 58.412,-3.048c10.349,-0 32.975,-2.695 42.282,-0.368c7.045,1.761 47.82,3.603 54.104,2.032c7.951,-1.988 32.421,-1.664 41.774,-1.664c4.856,-0 27.213,1.839 41.374,2.354c4.451,0.162 9.152,-0.016 9.836,-0.044c1.843,-0.749 5.518,-1.54 10.06,-2.137c9.781,-1.284 24.032,-2.139 29.55,-2.201c1.535,-0.78 3.444,-0.685 4.922,0.407c1.403,1.038 2.005,2.343 2.136,3.754c0.103,1.122 -0.133,2.589 -1.278,4.102c-0.954,1.259 -3.342,3.102 -5.822,5.058c-1.511,1.192 -3.162,2.375 -3.787,3.626c-0.084,0.168 -0.386,0.714 -1.053,1.457c-0.831,0.924 -3.022,3.191 -5.86,6.066c-6.506,6.593 -16.465,16.455 -20.926,20.506c-1.609,1.461 -2.796,2.306 -3.212,2.514c-1.09,0.545 -3.084,2.128 -4.712,3.63c-0.808,0.747 -1.577,1.395 -1.824,1.89c-1.312,2.624 -4.236,5.879 -7.716,9.089c-4.432,4.086 -9.765,8.225 -12.465,10.925c-1.259,1.259 -2.66,2.673 -4.138,4.195l-12.186,13.53Zm-233.896,-88.51c-1.748,-0.209 -3.307,-1.397 -3.901,-3.177c-0.75,-2.252 0.305,-4.675 2.378,-5.694c0.462,-0.666 0.95,-1.302 1.296,-1.648l3.555,-3.556c1.364,-1.363 1.965,-3.935 2.812,-6.44c1.35,-3.994 2.938,-7.944 5.315,-10.322c0.984,-0.983 1.442,-2.927 2.122,-4.799c1.195,-3.292 2.604,-6.53 4.482,-8.407c3.39,-3.39 5.053,-9.058 6.91,-13.905c1.539,-4.019 3.211,-7.596 5.28,-9.935c0.1,-0.671 0.382,-2.463 0.657,-3.375c0.392,-1.298 1.025,-2.403 1.883,-3.261c2.083,-2.083 3.965,-6.946 5.724,-10.463c1.61,-3.22 6.255,-12.986 9.759,-19.42c1.791,-3.288 3.425,-5.788 4.326,-6.689c1.988,-1.987 4.846,-6.167 6.74,-9.955c5.192,-10.382 12.677,-27.239 20.181,-34.743c1.691,-1.691 2.677,-4.435 3.798,-7.112c1.622,-3.875 3.379,-7.684 5.853,-10.158c1.417,-1.418 1.697,-3.837 2.392,-5.956c0.863,-2.631 1.992,-5.031 3.703,-6.743c1.914,-1.914 3.045,-5.612 4.2,-7.923c2.289,-4.577 15.367,-26.881 17.133,-28.648c1.032,-1.031 1.274,-2.842 1.752,-4.316c0.733,-2.264 1.671,-4.186 2.82,-5.335c4.056,-4.056 6.722,-10.609 9.377,-16.229c2.188,-4.631 4.405,-8.727 6.877,-11.2c0.3,-0.3 0.364,-0.815 0.525,-1.307c0.261,-0.799 0.484,-1.64 0.724,-2.439c0.506,-1.689 1.162,-3.215 1.976,-4.384c0.127,-0.712 0.389,-2.089 0.609,-2.643c0.328,-0.828 0.782,-1.461 1.245,-1.925c2.48,-2.48 3.286,-5.991 4.438,-9.099c1.047,-2.824 2.272,-5.428 4.067,-7.487c0.286,-0.632 0.747,-1.589 1.108,-2.064c0.626,-0.821 1.356,-1.346 2.011,-1.655c1.868,-0.882 3.81,-0.867 5.68,1.003c1.439,1.44 2.283,3.708 2.644,6.312c0.155,1.118 0.517,3.152 0.583,3.522c3.78,3.903 8.141,12.201 11.503,15.563c1.404,1.404 2.556,3.98 3.37,6.912c0.405,1.461 0.768,3.016 1.2,4.372c0.174,0.545 0.541,1.363 0.61,1.516c2.666,2.728 5.557,8.098 8.095,13.278c2.03,4.141 3.698,8.165 5.011,9.478c1.324,1.324 2.126,2.78 2.799,4.342c0.451,1.047 0.721,2.225 1.772,3.277c6.342,6.342 9.978,14.334 13.368,22.221c2.917,6.785 5.59,13.498 10.505,18.414c2.002,2.002 3.546,5.484 4.91,9.04c0.845,2.204 1.505,4.486 2.709,5.69c0.881,0.881 1.561,2.096 2.006,3.551c0.243,0.794 0.657,2.394 0.754,2.768c2.692,2.788 4.6,6.543 6.454,10.374c1.434,2.964 2.809,5.997 5.009,8.196c1.822,1.823 3.471,4.967 4.977,8.496c1.604,3.76 2.997,8.113 5.181,10.298c1.465,1.464 2.646,4.033 3.605,7.02c0.81,2.524 1.353,5.557 2.999,7.202c1.404,1.405 2.604,3.829 3.538,6.531c0.49,1.414 0.937,2.905 1.424,4.201c0.211,0.563 0.637,1.409 0.701,1.535c2.337,2.385 4.552,6.832 6.725,11.431c1.684,3.563 3.323,7.252 5.389,9.318c1.675,1.674 2.535,3.862 3.036,6.265c0.176,0.844 0.311,1.717 0.512,2.559c0.114,0.478 0.164,0.983 0.516,1.335c0.923,0.923 1.591,2.024 2.111,3.262c0.434,1.035 0.474,2.37 1.445,3.341c4.022,4.023 6.512,9.066 8.826,14.057c1.846,3.982 3.52,7.94 6.412,10.832c1.858,1.858 4.15,6.459 6.233,11.053c1.029,2.269 2.036,4.514 2.974,6.208c0.214,0.387 0.506,0.844 0.698,1.136c1.564,0.762 2.644,2.367 2.644,4.223c-0,2.59 -2.103,4.693 -4.693,4.693c-0.179,-0 -0.369,-0.012 -0.568,-0.039c-0.86,0.959 -2.108,1.563 -3.496,1.563c-15.279,-0 -44.658,3.456 -59.043,-0.14c-2.082,-0.521 -4.381,-0.25 -6.597,-0.254c-2.249,-0.004 -4.437,-0.193 -6.447,-0.863c-1.957,-0.652 -4.14,-0.394 -6.327,-0.263c-3.407,0.203 -6.821,0.283 -9.927,-0.753c-2.821,-0.94 -8.975,-0.047 -11.6,0.609c-5.075,1.269 -12.142,0.14 -17.392,0.14c-11.046,-0 -22.314,0.508 -33.524,0.508c-11.807,-0 -44.854,-1.726 -53.881,1.283c-3.608,1.202 -7.573,1.15 -11.555,0.992c-2.829,-0.112 -5.67,-0.33 -8.255,0.532c-2.257,0.752 -4.745,0.807 -7.287,0.607c-2.205,-0.173 -4.472,-0.751 -6.427,-0.099c-1.959,0.653 -4.089,0.729 -6.256,0.583c-1.692,-0.114 -3.42,-0.575 -4.919,-0.075c-1.188,0.396 -2.791,0.501 -4.479,0.43c-0.729,-0.031 -2.004,-0.036 -2.315,-0.037c-1.14,0.507 -2.415,0.724 -3.766,0.71c-0.855,-0.009 -2.463,-0.136 -2.898,-0.171c-3.587,1.625 -9.395,1.931 -15.908,1.649c-7.135,-0.31 -15.292,-1.27 -21.235,-0.109c-1.642,1.294 -3.169,1.184 -4.26,0.784Zm332.447,-34.74c-0.212,2.571 -0.68,4.937 -1.602,6.781c-0.156,0.312 -1.626,2.897 -2.069,3.418c-1.41,1.657 -3.019,1.716 -3.652,1.716c-1.371,-0 -3.827,-0.888 -5.652,-3.913c-1.551,-2.572 -3.49,-7.526 -5.258,-11.577c-0.817,-1.873 -1.433,-3.544 -2.06,-4.17c-2.179,-2.18 -3.754,-5.829 -5.155,-9.559c-0.89,-2.369 -1.604,-4.82 -2.972,-6.188c-6.271,-6.271 -20.078,-29.46 -24.752,-38.807c-9.65,-19.301 -21.815,-34.996 -31.492,-54.349c-1.057,-2.114 -2.544,-3.8 -3.985,-5.486c-1.931,-2.259 -3.808,-4.512 -5.158,-7.212c-2.916,-5.833 -6.522,-12.786 -11.311,-17.574c-1.191,-1.191 -2.135,-3.033 -2.889,-5.132c-0.504,-1.401 -0.749,-3.078 -1.683,-4.011c-3.824,-3.824 -6.968,-9.738 -9.893,-15.564c-2.435,-4.852 -4.653,-9.65 -7.376,-12.373c-0.968,-0.967 -2.871,-3.92 -4.998,-7.806c-4.279,-7.82 -10.058,-19.735 -11.628,-22.874c-0.673,-1.346 -1.263,-3.029 -1.87,-4.579c-0.283,-0.723 -0.438,-1.452 -0.806,-1.82c-1.603,-1.604 -2.714,-3.988 -3.542,-6.619c-0.414,-1.316 -0.773,-2.697 -1.232,-3.945c-0.229,-0.625 -0.417,-1.231 -0.813,-1.627c-6.361,-6.36 -12.092,-15.518 -16.626,-24.585c-1.158,-2.316 -0.217,-5.138 2.099,-6.296c1.788,-0.894 3.875,-0.538 5.268,0.735c2.136,0.721 6.979,1.215 10.179,1.864c2.967,0.602 5.056,1.683 5.717,2.344c0.376,0.376 1.049,0.602 1.823,0.896c1.35,0.513 2.973,0.957 4.713,1.369c6.017,1.424 13.262,2.457 17.026,3.712c19.324,6.441 39.653,10.34 58.921,16.762c16.091,5.364 32.301,9.413 48.254,14.73c4.765,1.589 10.317,2.058 14.837,4.318c2.86,1.431 7.353,1.567 11.784,1.858c5.816,0.382 11.556,0.924 15.137,2.714c3.691,1.846 20.791,4.672 26.337,5.049c1.747,-0.842 3.91,-0.539 5.358,0.909c1.832,1.832 1.832,4.806 0,6.637c-1.734,1.735 -2.63,5.781 -3.67,10.281c-2.014,8.718 -3.626,19.072 -6.117,24.055c-9.223,18.445 -12.63,41.836 -17.931,63.04c-2.385,9.54 -7.036,18.88 -9.884,28.615c1.798,1.33 2.436,3.801 1.402,5.869c-3.417,6.835 -5.146,14.266 -6.935,21.725c-1.955,8.153 -3.97,16.34 -7.795,23.99c-0.644,1.287 -0.758,2.851 -1.045,4.335c-0.329,1.704 -0.766,3.35 -1.495,4.807c-0.954,1.91 -3.405,8.996 -5.509,13.537Zm70.959,67.412c0.041,0.248 0.062,0.503 0.062,0.762c-0,2.59 -2.103,4.693 -4.693,4.693c-1.044,0 -2.558,-0.296 -4.408,-1.056c-2.757,-1.133 -6.8,-3.441 -11.504,-6.405c-14.406,-9.075 -35.631,-24.704 -43.477,-27.319c-1.741,-0.581 -3.271,-1.703 -4.693,-2.956c-0.516,-0.454 -1.461,-1.193 -1.703,-1.382c-2.469,-0.136 -4.432,-2.183 -4.432,-4.686c-0,-2.59 2.103,-4.693 4.693,-4.693c0.145,0 0.289,0.004 0.431,0.011c1.832,-6.148 9.93,-31.105 11.117,-33.48c0.38,-0.76 0.409,-1.676 0.535,-2.55c0.174,-1.199 0.38,-2.374 0.734,-3.439c2.48,-7.437 5.497,-15.438 7.519,-23.527c2.806,-11.224 4.099,-22.499 7.72,-33.362c0.5,-1.502 0.538,-3.331 0.795,-5.072c0.274,-1.854 0.714,-3.639 1.491,-5.193c1.957,-3.914 9.155,-29.699 9.155,-33.965c0,-1.574 1.101,-6.495 2.883,-12.727c3.828,-13.392 10.524,-33.48 12.343,-37.118c1.024,-2.049 3.568,-12.067 3.568,-14.155c0,-0.907 0.697,-4.173 1.088,-6.297c-0.153,-0.86 -0.067,-1.769 0.29,-2.623c-0.072,-0.41 -0.19,-0.803 -0.375,-1.172c-1.158,-2.317 -0.217,-5.138 2.099,-6.296c2.317,-1.159 5.138,-0.218 6.297,2.099c1.504,3.008 1.651,6.648 1.267,10.423c-0.207,2.042 -0.553,4.128 -0.644,6.096c-0.055,1.197 -0.083,2.339 0.392,3.29c1.146,2.292 1.634,5.579 1.624,9.155c-0.012,4.111 -0.62,8.676 -0.62,11.738c-0,8.046 1.025,28.525 0.397,42.584c-0.285,6.379 -1.047,11.573 -2.149,14.284c-0.059,1.136 -0.463,9.166 -0.457,16.408c0.011,12.056 0.365,26.519 0.937,30.295c0.484,1.172 0.833,2.729 0.972,4.594c0.261,3.495 -0.141,8.466 -0.558,13.462c-0.322,3.856 -0.648,7.73 -0.552,10.803c0.042,1.314 0.056,2.421 0.406,3.122c1.576,3.152 1.972,7.402 1.66,11.94c-0.364,5.305 -1.672,11.071 -1.672,15.048c-0,20.321 1.524,38.306 1.524,57.905c-0,0.259 -0.021,0.513 -0.062,0.761Zm-486.084,-10.091c-0.126,-0.424 -0.194,-0.873 -0.194,-1.337c0,-7.596 0.425,-32.503 -1.283,-37.627c-0.5,-1.5 -0.852,-5.596 -0.867,-10.751c-0.033,-10.79 0.965,-26.696 1.782,-29.967c1.688,-6.749 -0.14,-16.278 -0.14,-23.243c0,-20.237 0.508,-40.163 0.508,-60.444c0,-4.953 0.531,-35.267 0.061,-48.557c-0.075,-2.124 -0.291,-4.451 -0.327,-4.829c-0.408,-1.212 -0.728,-3.237 -0.758,-5.678c-0.058,-4.617 0.516,-11.307 0.516,-13.571c0,-2.007 0.508,-3.491 0.508,-5.588l0,-3.218c0,-0.033 0.001,-0.066 0.002,-0.099c0.075,-5.352 2.383,-6.353 4.691,-5.515c2.308,-0.838 4.617,0.163 4.691,5.515c0.002,0.033 0.002,0.066 0.002,0.099l0,1.319c0.806,1.018 1.179,2.355 0.951,3.697c0.284,1.061 0.907,3.35 1.093,3.723c0.888,1.775 1.322,3.806 1.586,5.913c0.227,1.809 0.184,3.72 0.954,5.261c0.808,1.616 1.245,3.477 1.502,5.424c0.241,1.816 0.248,3.739 0.785,5.35c3.176,9.529 6.224,19.252 8.735,29.298c5.661,22.642 11.223,44.801 18.693,67.21c4.947,14.84 5.999,31.194 12.952,45.1c0.579,1.157 0.856,2.529 0.956,3.97c0.039,0.55 0.12,1.562 0.138,1.775c2.747,5.659 9.378,27.587 10.018,34.083c0.343,0.784 1.099,2.578 1.148,3.258c0.124,1.693 -0.477,3.002 -1.457,3.982c-0.846,0.846 -2.105,1.525 -3.725,1.772c-0.702,0.107 -2.008,0.147 -2.803,0.161c-4.214,4.018 -11.067,9.419 -16.533,12.152c-1.806,0.903 -9.395,3.694 -10.305,4.027c-1.956,1.803 -6.172,4.72 -7.98,5.624c-2.211,1.105 -14.923,10.692 -16.051,11.819c-1.187,1.188 -4.152,2.852 -4.152,2.852c-1.612,0.862 -3.578,0.71 -5.038,-0.391c-1.46,-1.1 -2.148,-2.948 -1.763,-4.735c-0,-0 0.402,-1.702 0.402,-2.568c0,-1.654 0.273,-3.424 0.702,-5.266Zm408.124,-19.979c0.016,-0.016 0.033,-0.032 0.05,-0.048c3.317,-3.254 5.517,-3.034 6.731,-1.492c2.135,0.551 4.046,1.959 5.718,3.946c0.937,1.113 1.817,2.417 2.734,3.582c0.421,0.535 0.771,1.094 1.274,1.345c9.039,4.52 17.44,11.26 26.412,15.746c3.628,1.814 12.281,4.977 17.816,8.039c3.411,1.886 5.764,4.034 6.619,5.715c0.32,0.583 0.956,1.821 1.108,2.698c0.32,1.848 -0.197,3.51 -1.466,4.779c-1.333,1.333 -3.161,2.42 -5.223,3.459c-1.946,0.98 -4.209,1.909 -5.951,3.652c-5.5,5.5 -13.794,9.926 -22.47,14.035c-7.937,3.76 -16.19,7.276 -22.436,11.44c-9.184,6.123 -28.415,15.403 -38.707,18.833c-1.086,0.362 -2.014,1.22 -3.033,1.918c-1.291,0.883 -2.636,1.665 -4.078,2.146c-6.769,2.256 -13.087,6.142 -19.41,9.986c-6.932,4.214 -13.867,8.386 -21.225,10.839c-1.126,0.375 -2.023,1.48 -3.046,2.327c-1.456,1.205 -2.98,2.222 -4.573,2.752c-10.768,3.59 -27.039,16.701 -36.976,23.326c-5.983,3.989 -12.272,7.322 -16.555,11.604c-0.75,0.75 -1.897,1.453 -3.217,1.928c-1.883,0.677 -4.146,0.941 -4.146,0.941c-2.117,0.239 -4.13,-0.978 -4.901,-2.964c-0.772,-1.987 -0.108,-4.243 1.616,-5.496c-0,0 7.045,-5.095 10.107,-8.157c8.363,-8.363 20.272,-17.733 32,-29.46c10.032,-10.032 19.548,-20.564 29.46,-30.476c2.046,-2.047 5.306,-4.039 6.74,-6.908c1.828,-3.656 5.255,-7.33 8.899,-10.93c3.011,-2.973 6.174,-5.903 8.156,-8.876c1.852,-2.778 4.535,-5.35 7.106,-7.881c1.908,-1.878 3.79,-3.68 4.731,-5.711c2.728,-5.887 21.51,-26.995 26.844,-32.329c2.337,-2.337 6.139,-5.705 7.248,-7.924c0.937,-1.873 2.873,-3.213 4.435,-4.775l1.609,-1.609Zm-396.105,33.444c1.634,-1.513 4.963,-3.086 8.956,-4.655c4.486,-1.762 10.046,-3.686 13.222,-6.862c3.485,-3.486 16.613,-13.018 26.164,-18.4c2.095,-1.18 4.067,-2.139 5.8,-2.85c0.051,-0.131 0.109,-0.26 0.173,-0.388c1.158,-2.317 3.979,-3.257 6.296,-2.099c3.696,1.848 6.821,6.481 8.839,8.498c14.363,14.363 28.169,34.265 45.714,51.81c7.58,7.58 27.581,26.687 31.863,35.252c1.542,3.082 4.633,5.463 7.635,7.997c4.014,3.387 7.956,6.931 10.143,11.304c0.97,1.94 3.256,3.311 5.393,4.86c3.295,2.388 6.456,4.938 8.117,7.957c0.053,0.062 0.117,0.137 0.173,0.199c3.21,3.593 16.871,16.579 20.128,19.538c0.085,0.078 0.174,0.157 0.25,0.225c2.724,1.671 6.234,5.652 7.727,7.145l1.016,1.015c1.601,1.602 1.83,4.118 0.545,5.982c-1.285,1.864 -3.718,2.546 -5.784,1.619c0,0 -4.682,-2.215 -6.478,-4.011c-3.502,-3.503 -8.048,-5.755 -11.635,-9.115c-0.973,-0.311 -3.131,-1.08 -4.111,-2.06c-0.676,-0.677 -1.743,-0.971 -2.841,-1.358c-1.997,-0.705 -4.162,-1.366 -6.098,-2.334c-12.824,-6.413 -23.538,-14.055 -37.079,-20.826c-2.254,-1.127 -4.198,-2.795 -6.11,-4.512c-1.283,-1.151 -2.532,-2.348 -4.049,-3.107c-6.577,-3.288 -32.282,-18.735 -36.267,-22.72c-1.087,-1.087 -2.948,-1.888 -4.828,-2.693c-2.576,-1.101 -5.252,-2.078 -7.159,-3.031c-9.284,-4.642 -33.963,-17.369 -40.331,-23.737c-0.527,-0.527 -1.325,-0.81 -2.167,-1.123c-1.467,-0.546 -3.096,-0.983 -4.652,-1.486c-2.925,-0.946 -5.598,-2.188 -7.403,-3.994c-3.535,-3.535 -8.417,-5.109 -12.797,-7.008c-3.841,-1.664 -7.383,-3.521 -10.06,-6.198c-1.931,-1.93 -2.029,-4.042 -0.949,-6.146c0.446,-0.867 1.874,-2.075 2.644,-2.688Z" style="fill:#fff;"/></svg>